<mxfile host="app.diagrams.net" agent="Mozilla/5.0 (Macintosh; Intel Mac OS X 10_15_7) AppleWebKit/537.36 (KHTML, like Gecko) Chrome/136.0.0.0 Safari/537.36" version="27.0.5">
  <diagram name="Pagina-1" id="393xFa-wxGmVzUBMz7oe">
    <mxGraphModel dx="1351" dy="2089" grid="1" gridSize="10" guides="1" tooltips="1" connect="1" arrows="1" fold="1" page="1" pageScale="1" pageWidth="827" pageHeight="1169" math="0" shadow="0">
      <root>
        <mxCell id="0" />
        <mxCell id="1" parent="0" />
        <mxCell id="-szrvnAvTn_Sn9t5M3lu-1" value="&lt;span style=&quot;text-wrap-mode: nowrap;&quot;&gt;State&lt;/span&gt;" style="whiteSpace=wrap;html=1;align=center;perimeterSpacing=1;rounded=0;strokeWidth=1;strokeColor=light-dark(#000000,#000000);fillStyle=solid;gradientColor=none;fillColor=light-dark(#FFFFFF,#FFFFFF);perimeter=rectanglePerimeter;fixDash=0;" vertex="1" parent="1">
          <mxGeometry x="150" y="250" width="100" height="40" as="geometry" />
        </mxCell>
        <mxCell id="-szrvnAvTn_Sn9t5M3lu-2" value="Located" style="shape=rhombus;perimeter=rhombusPerimeter;whiteSpace=wrap;html=1;align=center;fillColor=light-dark(#FFFFFF,#FFFFFF);strokeColor=light-dark(#000000,#000000);fillStyle=solid;fontColor=light-dark(#000000,#000000);perimeterSpacing=1;gradientColor=none;" vertex="1" parent="1">
          <mxGeometry x="290" y="240" width="120" height="60" as="geometry" />
        </mxCell>
        <mxCell id="-szrvnAvTn_Sn9t5M3lu-3" value="" style="endArrow=none;html=1;rounded=0;exitX=1;exitY=0.5;exitDx=0;exitDy=0;entryX=0;entryY=0.5;entryDx=0;entryDy=0;strokeColor=light-dark(#000000,#000000);" edge="1" parent="1" source="-szrvnAvTn_Sn9t5M3lu-1" target="-szrvnAvTn_Sn9t5M3lu-2">
          <mxGeometry relative="1" as="geometry">
            <mxPoint x="530" y="460" as="sourcePoint" />
            <mxPoint x="690" y="460" as="targetPoint" />
          </mxGeometry>
        </mxCell>
        <mxCell id="-szrvnAvTn_Sn9t5M3lu-4" value="" style="resizable=0;html=1;whiteSpace=wrap;align=right;verticalAlign=bottom;" connectable="0" vertex="1" parent="-szrvnAvTn_Sn9t5M3lu-3">
          <mxGeometry x="1" relative="1" as="geometry" />
        </mxCell>
        <mxCell id="-szrvnAvTn_Sn9t5M3lu-5" value="(1,N)" style="edgeLabel;html=1;align=center;verticalAlign=middle;resizable=0;points=[];fontColor=light-dark(#000000,#000000);labelBackgroundColor=light-dark(#FFFFFF,#FFFFFF);" vertex="1" connectable="0" parent="-szrvnAvTn_Sn9t5M3lu-3">
          <mxGeometry x="-0.1179" y="-2" relative="1" as="geometry">
            <mxPoint x="5" y="-12" as="offset" />
          </mxGeometry>
        </mxCell>
        <mxCell id="-szrvnAvTn_Sn9t5M3lu-6" value="" style="endArrow=none;html=1;rounded=0;strokeColor=light-dark(#000000,#000000);exitX=0;exitY=0.5;exitDx=0;exitDy=0;" edge="1" parent="1" source="-szrvnAvTn_Sn9t5M3lu-11" target="-szrvnAvTn_Sn9t5M3lu-2">
          <mxGeometry relative="1" as="geometry">
            <mxPoint x="510" y="270" as="sourcePoint" />
            <mxPoint x="548" y="269.5" as="targetPoint" />
          </mxGeometry>
        </mxCell>
        <mxCell id="-szrvnAvTn_Sn9t5M3lu-7" value="M" style="resizable=0;html=1;whiteSpace=wrap;align=left;verticalAlign=bottom;" connectable="0" vertex="1" parent="-szrvnAvTn_Sn9t5M3lu-6">
          <mxGeometry x="-1" relative="1" as="geometry" />
        </mxCell>
        <mxCell id="-szrvnAvTn_Sn9t5M3lu-8" value="(1,1)" style="edgeLabel;html=1;align=center;verticalAlign=middle;resizable=0;points=[];fontColor=light-dark(#000000,#000000);labelBackgroundColor=light-dark(#FFFFFF,#FFFFFF);" vertex="1" connectable="0" parent="-szrvnAvTn_Sn9t5M3lu-6">
          <mxGeometry x="-0.1179" y="-2" relative="1" as="geometry">
            <mxPoint x="-16" y="-8" as="offset" />
          </mxGeometry>
        </mxCell>
        <mxCell id="-szrvnAvTn_Sn9t5M3lu-9" style="edgeStyle=orthogonalEdgeStyle;rounded=0;orthogonalLoop=1;jettySize=auto;html=1;exitX=1;exitY=0.5;exitDx=0;exitDy=0;entryX=0;entryY=0.5;entryDx=0;entryDy=0;endArrow=none;startFill=0;" edge="1" parent="1" source="-szrvnAvTn_Sn9t5M3lu-11" target="-szrvnAvTn_Sn9t5M3lu-12">
          <mxGeometry relative="1" as="geometry" />
        </mxCell>
        <mxCell id="-szrvnAvTn_Sn9t5M3lu-10" value="" style="edgeStyle=orthogonalEdgeStyle;rounded=0;orthogonalLoop=1;jettySize=auto;html=1;endArrow=none;startFill=0;" edge="1" parent="1" source="-szrvnAvTn_Sn9t5M3lu-11" target="-szrvnAvTn_Sn9t5M3lu-2">
          <mxGeometry relative="1" as="geometry" />
        </mxCell>
        <mxCell id="-szrvnAvTn_Sn9t5M3lu-11" value="&lt;span style=&quot;text-wrap-mode: nowrap;&quot;&gt;County&lt;/span&gt;" style="whiteSpace=wrap;html=1;align=center;perimeterSpacing=1;rounded=0;strokeWidth=1;strokeColor=light-dark(#000000,#000000);fillStyle=solid;gradientColor=none;fillColor=light-dark(#FFFFFF,#FFFFFF);perimeter=rectanglePerimeter;fixDash=0;" vertex="1" parent="1">
          <mxGeometry x="470" y="250" width="100" height="40" as="geometry" />
        </mxCell>
        <mxCell id="-szrvnAvTn_Sn9t5M3lu-12" value="Located" style="shape=rhombus;perimeter=rhombusPerimeter;whiteSpace=wrap;html=1;align=center;fillColor=light-dark(#FFFFFF,#FFFFFF);strokeColor=light-dark(#000000,#000000);fillStyle=solid;fontColor=light-dark(#000000,#000000);perimeterSpacing=1;gradientColor=none;" vertex="1" parent="1">
          <mxGeometry x="630" y="240" width="120" height="60" as="geometry" />
        </mxCell>
        <mxCell id="-szrvnAvTn_Sn9t5M3lu-13" value="" style="resizable=0;html=1;whiteSpace=wrap;align=right;verticalAlign=bottom;" connectable="0" vertex="1" parent="1">
          <mxGeometry x="666.25" y="270" as="geometry" />
        </mxCell>
        <mxCell id="-szrvnAvTn_Sn9t5M3lu-14" value="(1,N)" style="edgeLabel;html=1;align=center;verticalAlign=middle;resizable=0;points=[];fontColor=light-dark(#000000,#000000);labelBackgroundColor=light-dark(#FFFFFF,#FFFFFF);" vertex="1" connectable="0" parent="1">
          <mxGeometry x="650" y="260.0000000000001" as="geometry">
            <mxPoint x="-42" as="offset" />
          </mxGeometry>
        </mxCell>
        <mxCell id="-szrvnAvTn_Sn9t5M3lu-15" value="" style="endArrow=none;html=1;rounded=0;strokeColor=light-dark(#000000,#000000);exitX=0;exitY=0.5;exitDx=0;exitDy=0;" edge="1" parent="1" source="-szrvnAvTn_Sn9t5M3lu-19" target="-szrvnAvTn_Sn9t5M3lu-12">
          <mxGeometry relative="1" as="geometry">
            <mxPoint x="887.75" y="270" as="sourcePoint" />
            <mxPoint x="925.75" y="269.5" as="targetPoint" />
          </mxGeometry>
        </mxCell>
        <mxCell id="-szrvnAvTn_Sn9t5M3lu-16" value="M" style="resizable=0;html=1;whiteSpace=wrap;align=left;verticalAlign=bottom;" connectable="0" vertex="1" parent="-szrvnAvTn_Sn9t5M3lu-15">
          <mxGeometry x="-1" relative="1" as="geometry" />
        </mxCell>
        <mxCell id="-szrvnAvTn_Sn9t5M3lu-17" value="(1,1)" style="edgeLabel;html=1;align=center;verticalAlign=middle;resizable=0;points=[];fontColor=light-dark(#000000,#000000);labelBackgroundColor=light-dark(#FFFFFF,#FFFFFF);" vertex="1" connectable="0" parent="-szrvnAvTn_Sn9t5M3lu-15">
          <mxGeometry x="-0.1179" y="-2" relative="1" as="geometry">
            <mxPoint x="-4" y="-8" as="offset" />
          </mxGeometry>
        </mxCell>
        <mxCell id="-szrvnAvTn_Sn9t5M3lu-18" style="edgeStyle=orthogonalEdgeStyle;rounded=0;orthogonalLoop=1;jettySize=auto;html=1;exitX=1;exitY=0.5;exitDx=0;exitDy=0;entryX=0;entryY=0.5;entryDx=0;entryDy=0;endArrow=none;startFill=0;" edge="1" parent="1" source="-szrvnAvTn_Sn9t5M3lu-19" target="-szrvnAvTn_Sn9t5M3lu-26">
          <mxGeometry relative="1" as="geometry" />
        </mxCell>
        <mxCell id="-szrvnAvTn_Sn9t5M3lu-19" value="&lt;span style=&quot;text-wrap-mode: nowrap;&quot;&gt;City&lt;/span&gt;" style="whiteSpace=wrap;html=1;align=center;perimeterSpacing=1;rounded=0;strokeWidth=1;strokeColor=light-dark(#000000,#000000);fillStyle=solid;gradientColor=none;fillColor=light-dark(#FFFFFF,#FFFFFF);perimeter=rectanglePerimeter;fixDash=0;" vertex="1" parent="1">
          <mxGeometry x="810" y="250" width="100" height="40" as="geometry" />
        </mxCell>
        <mxCell id="-szrvnAvTn_Sn9t5M3lu-20" value="" style="edgeStyle=orthogonalEdgeStyle;rounded=0;orthogonalLoop=1;jettySize=auto;html=1;endArrow=none;startFill=0;" edge="1" parent="1" source="-szrvnAvTn_Sn9t5M3lu-21" target="-szrvnAvTn_Sn9t5M3lu-30">
          <mxGeometry relative="1" as="geometry" />
        </mxCell>
        <mxCell id="-szrvnAvTn_Sn9t5M3lu-21" value="&lt;span style=&quot;text-wrap-mode: nowrap;&quot;&gt;Race&lt;/span&gt;" style="whiteSpace=wrap;html=1;align=center;perimeterSpacing=1;rounded=0;strokeWidth=1;strokeColor=light-dark(#000000,#000000);fillStyle=solid;gradientColor=none;fillColor=light-dark(#FFFFFF,#FFFFFF);perimeter=rectanglePerimeter;fixDash=0;" vertex="1" parent="1">
          <mxGeometry x="1090" y="40" width="100" height="40" as="geometry" />
        </mxCell>
        <mxCell id="-szrvnAvTn_Sn9t5M3lu-22" value="&lt;span style=&quot;text-wrap-mode: nowrap;&quot;&gt;Ethinicity&lt;/span&gt;" style="whiteSpace=wrap;html=1;align=center;perimeterSpacing=1;rounded=0;strokeWidth=1;strokeColor=light-dark(#000000,#000000);fillStyle=solid;gradientColor=none;fillColor=light-dark(#FFFFFF,#FFFFFF);perimeter=rectanglePerimeter;fixDash=0;" vertex="1" parent="1">
          <mxGeometry x="1270" y="40" width="100" height="40" as="geometry" />
        </mxCell>
        <mxCell id="-szrvnAvTn_Sn9t5M3lu-23" style="edgeStyle=orthogonalEdgeStyle;rounded=0;orthogonalLoop=1;jettySize=auto;html=1;exitX=1;exitY=0.5;exitDx=0;exitDy=0;endArrow=none;startFill=0;" edge="1" parent="1" source="-szrvnAvTn_Sn9t5M3lu-24" target="-szrvnAvTn_Sn9t5M3lu-72">
          <mxGeometry relative="1" as="geometry" />
        </mxCell>
        <mxCell id="-szrvnAvTn_Sn9t5M3lu-24" value="&lt;span style=&quot;text-wrap-mode: nowrap;&quot;&gt;Patient&lt;/span&gt;" style="whiteSpace=wrap;html=1;align=center;perimeterSpacing=1;rounded=0;strokeWidth=1;strokeColor=light-dark(#000000,#000000);fillStyle=solid;gradientColor=none;fillColor=light-dark(#FFFFFF,#FFFFFF);perimeter=rectanglePerimeter;fixDash=0;" vertex="1" parent="1">
          <mxGeometry x="1180" y="250" width="80" height="40" as="geometry" />
        </mxCell>
        <mxCell id="-szrvnAvTn_Sn9t5M3lu-25" style="edgeStyle=orthogonalEdgeStyle;rounded=0;orthogonalLoop=1;jettySize=auto;html=1;exitX=1;exitY=0.5;exitDx=0;exitDy=0;entryX=0;entryY=0.5;entryDx=0;entryDy=0;endArrow=none;startFill=0;" edge="1" parent="1" source="-szrvnAvTn_Sn9t5M3lu-26" target="-szrvnAvTn_Sn9t5M3lu-24">
          <mxGeometry relative="1" as="geometry" />
        </mxCell>
        <mxCell id="-szrvnAvTn_Sn9t5M3lu-26" value="Live" style="shape=rhombus;perimeter=rhombusPerimeter;whiteSpace=wrap;html=1;align=center;fillColor=light-dark(#FFFFFF,#FFFFFF);strokeColor=light-dark(#000000,#000000);fillStyle=solid;fontColor=light-dark(#000000,#000000);perimeterSpacing=1;gradientColor=none;" vertex="1" parent="1">
          <mxGeometry x="990" y="240" width="120" height="60" as="geometry" />
        </mxCell>
        <mxCell id="-szrvnAvTn_Sn9t5M3lu-27" value="(1,1)" style="edgeLabel;html=1;align=center;verticalAlign=middle;resizable=0;points=[];fontColor=light-dark(#000000,#000000);labelBackgroundColor=light-dark(#FFFFFF,#FFFFFF);" vertex="1" connectable="0" parent="1">
          <mxGeometry x="1100" y="220.0000000000001" as="geometry">
            <mxPoint x="50" y="38" as="offset" />
          </mxGeometry>
        </mxCell>
        <mxCell id="-szrvnAvTn_Sn9t5M3lu-28" value="&lt;span style=&quot;color: rgb(0, 0, 0); font-family: Helvetica; font-size: 11px; font-style: normal; font-variant-ligatures: normal; font-variant-caps: normal; font-weight: 400; letter-spacing: normal; orphans: 2; text-align: center; text-indent: 0px; text-transform: none; widows: 2; word-spacing: 0px; -webkit-text-stroke-width: 0px; white-space: nowrap; background-color: rgb(255, 255, 255); text-decoration-thickness: initial; text-decoration-style: initial; text-decoration-color: initial; display: inline !important; float: none;&quot;&gt;(1,N)&lt;/span&gt;" style="text;whiteSpace=wrap;html=1;" vertex="1" parent="1">
          <mxGeometry x="940" y="240" width="30" height="30" as="geometry" />
        </mxCell>
        <mxCell id="-szrvnAvTn_Sn9t5M3lu-29" style="edgeStyle=orthogonalEdgeStyle;rounded=0;orthogonalLoop=1;jettySize=auto;html=1;exitX=0.5;exitY=1;exitDx=0;exitDy=0;entryX=0.25;entryY=0;entryDx=0;entryDy=0;endArrow=none;startFill=0;" edge="1" parent="1" source="-szrvnAvTn_Sn9t5M3lu-30" target="-szrvnAvTn_Sn9t5M3lu-24">
          <mxGeometry relative="1" as="geometry" />
        </mxCell>
        <mxCell id="-szrvnAvTn_Sn9t5M3lu-30" value="Belong" style="shape=rhombus;perimeter=rhombusPerimeter;whiteSpace=wrap;html=1;align=center;fillColor=light-dark(#FFFFFF,#FFFFFF);strokeColor=light-dark(#000000,#000000);fillStyle=solid;fontColor=light-dark(#000000,#000000);perimeterSpacing=1;gradientColor=none;" vertex="1" parent="1">
          <mxGeometry x="1080" y="140" width="120" height="60" as="geometry" />
        </mxCell>
        <mxCell id="-szrvnAvTn_Sn9t5M3lu-31" value="" style="edgeStyle=orthogonalEdgeStyle;rounded=0;orthogonalLoop=1;jettySize=auto;html=1;endArrow=none;startFill=0;" edge="1" parent="1" source="-szrvnAvTn_Sn9t5M3lu-33" target="-szrvnAvTn_Sn9t5M3lu-22">
          <mxGeometry relative="1" as="geometry" />
        </mxCell>
        <mxCell id="-szrvnAvTn_Sn9t5M3lu-32" style="edgeStyle=orthogonalEdgeStyle;rounded=0;orthogonalLoop=1;jettySize=auto;html=1;exitX=0.5;exitY=1;exitDx=0;exitDy=0;entryX=0.75;entryY=0;entryDx=0;entryDy=0;endArrow=none;startFill=0;" edge="1" parent="1" source="-szrvnAvTn_Sn9t5M3lu-33" target="-szrvnAvTn_Sn9t5M3lu-24">
          <mxGeometry relative="1" as="geometry" />
        </mxCell>
        <mxCell id="-szrvnAvTn_Sn9t5M3lu-33" value="Belong" style="shape=rhombus;perimeter=rhombusPerimeter;whiteSpace=wrap;html=1;align=center;fillColor=light-dark(#FFFFFF,#FFFFFF);strokeColor=light-dark(#000000,#000000);fillStyle=solid;fontColor=light-dark(#000000,#000000);perimeterSpacing=1;gradientColor=none;" vertex="1" parent="1">
          <mxGeometry x="1260" y="140" width="120" height="60" as="geometry" />
        </mxCell>
        <mxCell id="-szrvnAvTn_Sn9t5M3lu-34" value="&lt;span style=&quot;color: rgb(0, 0, 0); font-family: Helvetica; font-size: 11px; font-style: normal; font-variant-ligatures: normal; font-variant-caps: normal; font-weight: 400; letter-spacing: normal; orphans: 2; text-align: center; text-indent: 0px; text-transform: none; widows: 2; word-spacing: 0px; -webkit-text-stroke-width: 0px; white-space: nowrap; background-color: rgb(255, 255, 255); text-decoration-thickness: initial; text-decoration-style: initial; text-decoration-color: initial; display: inline !important; float: none;&quot;&gt;(1,1)&lt;/span&gt;" style="text;whiteSpace=wrap;html=1;" vertex="1" parent="1">
          <mxGeometry x="1170" y="200" width="60" height="40" as="geometry" />
        </mxCell>
        <mxCell id="-szrvnAvTn_Sn9t5M3lu-35" value="&lt;span style=&quot;color: rgb(0, 0, 0); font-family: Helvetica; font-size: 11px; font-style: normal; font-variant-ligatures: normal; font-variant-caps: normal; font-weight: 400; letter-spacing: normal; orphans: 2; text-align: center; text-indent: 0px; text-transform: none; widows: 2; word-spacing: 0px; -webkit-text-stroke-width: 0px; white-space: nowrap; background-color: rgb(255, 255, 255); text-decoration-thickness: initial; text-decoration-style: initial; text-decoration-color: initial; display: inline !important; float: none;&quot;&gt;(1,1)&lt;/span&gt;" style="text;whiteSpace=wrap;html=1;" vertex="1" parent="1">
          <mxGeometry x="1280" y="200" width="60" height="40" as="geometry" />
        </mxCell>
        <mxCell id="-szrvnAvTn_Sn9t5M3lu-36" value="&lt;span style=&quot;color: rgb(0, 0, 0); font-family: Helvetica; font-size: 11px; font-style: normal; font-variant-ligatures: normal; font-variant-caps: normal; font-weight: 400; letter-spacing: normal; orphans: 2; text-align: center; text-indent: 0px; text-transform: none; widows: 2; word-spacing: 0px; -webkit-text-stroke-width: 0px; white-space: nowrap; background-color: rgb(255, 255, 255); text-decoration-thickness: initial; text-decoration-style: initial; text-decoration-color: initial; display: inline !important; float: none;&quot;&gt;(1,N)&lt;/span&gt;" style="text;whiteSpace=wrap;html=1;" vertex="1" parent="1">
          <mxGeometry x="1140" y="100" width="30" height="30" as="geometry" />
        </mxCell>
        <mxCell id="-szrvnAvTn_Sn9t5M3lu-37" value="&lt;span style=&quot;color: rgb(0, 0, 0); font-family: Helvetica; font-size: 11px; font-style: normal; font-variant-ligatures: normal; font-variant-caps: normal; font-weight: 400; letter-spacing: normal; orphans: 2; text-align: center; text-indent: 0px; text-transform: none; widows: 2; word-spacing: 0px; -webkit-text-stroke-width: 0px; white-space: nowrap; background-color: rgb(255, 255, 255); text-decoration-thickness: initial; text-decoration-style: initial; text-decoration-color: initial; display: inline !important; float: none;&quot;&gt;(1,N)&lt;/span&gt;" style="text;whiteSpace=wrap;html=1;" vertex="1" parent="1">
          <mxGeometry x="1330" y="100" width="30" height="30" as="geometry" />
        </mxCell>
        <mxCell id="-szrvnAvTn_Sn9t5M3lu-38" value="" style="edgeStyle=orthogonalEdgeStyle;rounded=0;orthogonalLoop=1;jettySize=auto;html=1;endArrow=none;startFill=0;" edge="1" parent="1" source="-szrvnAvTn_Sn9t5M3lu-39" target="-szrvnAvTn_Sn9t5M3lu-19">
          <mxGeometry relative="1" as="geometry" />
        </mxCell>
        <mxCell id="-szrvnAvTn_Sn9t5M3lu-39" value="Located" style="shape=rhombus;perimeter=rhombusPerimeter;whiteSpace=wrap;html=1;align=center;fillColor=light-dark(#FFFFFF,#FFFFFF);strokeColor=light-dark(#000000,#000000);fillStyle=solid;fontColor=light-dark(#000000,#000000);perimeterSpacing=1;gradientColor=none;" vertex="1" parent="1">
          <mxGeometry x="800" y="360" width="120" height="60" as="geometry" />
        </mxCell>
        <mxCell id="-szrvnAvTn_Sn9t5M3lu-40" value="" style="resizable=0;html=1;whiteSpace=wrap;align=right;verticalAlign=bottom;" connectable="0" vertex="1" parent="1">
          <mxGeometry x="836.25" y="390" as="geometry" />
        </mxCell>
        <mxCell id="-szrvnAvTn_Sn9t5M3lu-41" value="(1,N)" style="edgeLabel;html=1;align=center;verticalAlign=middle;resizable=0;points=[];fontColor=light-dark(#000000,#000000);labelBackgroundColor=light-dark(#FFFFFF,#FFFFFF);" vertex="1" connectable="0" parent="1">
          <mxGeometry x="920" y="330.0000000000001" as="geometry">
            <mxPoint x="-42" as="offset" />
          </mxGeometry>
        </mxCell>
        <mxCell id="-szrvnAvTn_Sn9t5M3lu-42" value="" style="edgeStyle=orthogonalEdgeStyle;rounded=0;orthogonalLoop=1;jettySize=auto;html=1;endArrow=none;startFill=0;" edge="1" parent="1" source="-szrvnAvTn_Sn9t5M3lu-43" target="-szrvnAvTn_Sn9t5M3lu-39">
          <mxGeometry relative="1" as="geometry" />
        </mxCell>
        <mxCell id="-szrvnAvTn_Sn9t5M3lu-249" style="edgeStyle=orthogonalEdgeStyle;rounded=0;orthogonalLoop=1;jettySize=auto;html=1;exitX=0.5;exitY=1;exitDx=0;exitDy=0;entryX=0.5;entryY=0;entryDx=0;entryDy=0;endArrow=none;startFill=0;" edge="1" parent="1" source="-szrvnAvTn_Sn9t5M3lu-43" target="-szrvnAvTn_Sn9t5M3lu-248">
          <mxGeometry relative="1" as="geometry" />
        </mxCell>
        <mxCell id="-szrvnAvTn_Sn9t5M3lu-43" value="&lt;span style=&quot;text-wrap-mode: nowrap;&quot;&gt;Organization&lt;/span&gt;" style="whiteSpace=wrap;html=1;align=center;perimeterSpacing=1;rounded=0;strokeWidth=1;strokeColor=light-dark(#000000,#000000);fillStyle=solid;gradientColor=none;fillColor=light-dark(#FFFFFF,#FFFFFF);perimeter=rectanglePerimeter;fixDash=0;" vertex="1" parent="1">
          <mxGeometry x="810" y="490" width="100" height="40" as="geometry" />
        </mxCell>
        <mxCell id="-szrvnAvTn_Sn9t5M3lu-44" value="(1,1)" style="edgeLabel;html=1;align=center;verticalAlign=middle;resizable=0;points=[];fontColor=light-dark(#000000,#000000);labelBackgroundColor=light-dark(#FFFFFF,#FFFFFF);" vertex="1" connectable="0" parent="1">
          <mxGeometry x="910" y="410" as="geometry">
            <mxPoint x="-27" y="43" as="offset" />
          </mxGeometry>
        </mxCell>
        <mxCell id="-szrvnAvTn_Sn9t5M3lu-45" style="edgeStyle=orthogonalEdgeStyle;rounded=0;orthogonalLoop=1;jettySize=auto;html=1;exitX=1;exitY=0.5;exitDx=0;exitDy=0;entryX=0;entryY=0.5;entryDx=0;entryDy=0;endArrow=none;startFill=0;" edge="1" parent="1" source="-szrvnAvTn_Sn9t5M3lu-46" target="-szrvnAvTn_Sn9t5M3lu-96">
          <mxGeometry relative="1" as="geometry" />
        </mxCell>
        <mxCell id="-szrvnAvTn_Sn9t5M3lu-253" style="edgeStyle=orthogonalEdgeStyle;rounded=0;orthogonalLoop=1;jettySize=auto;html=1;exitX=1;exitY=0.75;exitDx=0;exitDy=0;entryX=1;entryY=0.5;entryDx=0;entryDy=0;endArrow=none;startFill=0;" edge="1" parent="1" source="-szrvnAvTn_Sn9t5M3lu-46" target="-szrvnAvTn_Sn9t5M3lu-166">
          <mxGeometry relative="1" as="geometry">
            <Array as="points">
              <mxPoint x="2340" y="-189" />
              <mxPoint x="2340" y="-20" />
            </Array>
          </mxGeometry>
        </mxCell>
        <mxCell id="-szrvnAvTn_Sn9t5M3lu-46" value="Conditions" style="whiteSpace=wrap;html=1;align=center;perimeterSpacing=1;rounded=0;strokeWidth=1;strokeColor=light-dark(#000000,#000000);fillStyle=solid;gradientColor=none;fillColor=light-dark(#FFFFFF,#FFFFFF);perimeter=rectanglePerimeter;fixDash=0;" vertex="1" parent="1">
          <mxGeometry x="2022.06" y="-220" width="100" height="40" as="geometry" />
        </mxCell>
        <mxCell id="-szrvnAvTn_Sn9t5M3lu-47" value="Affected by" style="shape=rhombus;perimeter=rhombusPerimeter;whiteSpace=wrap;html=1;align=center;fillColor=light-dark(#FFFFFF,#FFFFFF);strokeColor=light-dark(#000000,#000000);fillStyle=solid;fontColor=light-dark(#000000,#000000);perimeterSpacing=1;gradientColor=none;" vertex="1" parent="1">
          <mxGeometry x="1720" y="-230" width="120" height="60" as="geometry" />
        </mxCell>
        <mxCell id="-szrvnAvTn_Sn9t5M3lu-48" value="" style="endArrow=none;html=1;rounded=0;entryX=1;entryY=0.5;entryDx=0;entryDy=0;strokeColor=light-dark(#000000,#000000);exitX=0;exitY=0.5;exitDx=0;exitDy=0;" edge="1" parent="1" source="-szrvnAvTn_Sn9t5M3lu-46" target="-szrvnAvTn_Sn9t5M3lu-47">
          <mxGeometry relative="1" as="geometry">
            <mxPoint x="2000" y="220" as="sourcePoint" />
            <mxPoint x="2120" y="410" as="targetPoint" />
          </mxGeometry>
        </mxCell>
        <mxCell id="-szrvnAvTn_Sn9t5M3lu-49" value="(1,N)" style="edgeLabel;html=1;align=center;verticalAlign=middle;resizable=0;points=[];fontColor=light-dark(#000000,#000000);labelBackgroundColor=light-dark(#FFFFFF,#FFFFFF);" vertex="1" connectable="0" parent="-szrvnAvTn_Sn9t5M3lu-48">
          <mxGeometry x="-0.1179" y="-2" relative="1" as="geometry">
            <mxPoint x="5" y="-12" as="offset" />
          </mxGeometry>
        </mxCell>
        <mxCell id="-szrvnAvTn_Sn9t5M3lu-50" value="" style="endArrow=none;html=1;rounded=0;strokeColor=light-dark(#000000,#000000);exitX=0.5;exitY=0;exitDx=0;exitDy=0;entryX=0.5;entryY=1;entryDx=0;entryDy=0;" edge="1" parent="1" source="-szrvnAvTn_Sn9t5M3lu-53" target="-szrvnAvTn_Sn9t5M3lu-47">
          <mxGeometry relative="1" as="geometry">
            <mxPoint x="1769" y="370" as="sourcePoint" />
            <mxPoint x="1670" y="370" as="targetPoint" />
          </mxGeometry>
        </mxCell>
        <mxCell id="-szrvnAvTn_Sn9t5M3lu-51" value="(1,N)" style="edgeLabel;html=1;align=center;verticalAlign=middle;resizable=0;points=[];fontColor=light-dark(#000000,#000000);labelBackgroundColor=light-dark(#FFFFFF,#FFFFFF);" vertex="1" connectable="0" parent="-szrvnAvTn_Sn9t5M3lu-50">
          <mxGeometry x="-0.1179" y="-2" relative="1" as="geometry">
            <mxPoint x="-22" y="-116" as="offset" />
          </mxGeometry>
        </mxCell>
        <mxCell id="-szrvnAvTn_Sn9t5M3lu-52" style="edgeStyle=orthogonalEdgeStyle;rounded=0;orthogonalLoop=1;jettySize=auto;html=1;endArrow=none;startFill=0;" edge="1" parent="1" target="-szrvnAvTn_Sn9t5M3lu-96">
          <mxGeometry relative="1" as="geometry">
            <mxPoint x="1820" y="299" as="sourcePoint" />
            <Array as="points">
              <mxPoint x="1820" y="299" />
              <mxPoint x="1820" y="65" />
              <mxPoint x="2480" y="65" />
            </Array>
          </mxGeometry>
        </mxCell>
        <mxCell id="-szrvnAvTn_Sn9t5M3lu-53" value="&lt;font style=&quot;color: light-dark(rgb(0, 0, 0), rgb(0, 0, 0));&quot;&gt;Encounter&lt;/font&gt;" style="whiteSpace=wrap;html=1;align=center;perimeterSpacing=1;rounded=0;strokeWidth=1;strokeColor=light-dark(#000000,#000000);fillStyle=solid;gradientColor=none;fillColor=light-dark(#FFFFFF,#FFFFFF);perimeter=rectanglePerimeter;fixDash=0;" vertex="1" parent="1">
          <mxGeometry x="1730" y="300" width="100" height="40" as="geometry" />
        </mxCell>
        <mxCell id="-szrvnAvTn_Sn9t5M3lu-54" value="" style="endArrow=none;html=1;rounded=0;strokeColor=light-dark(#000000,#000000);exitX=0.5;exitY=1;exitDx=0;exitDy=0;entryX=0.5;entryY=0;entryDx=0;entryDy=0;" edge="1" parent="1" source="-szrvnAvTn_Sn9t5M3lu-57" target="-szrvnAvTn_Sn9t5M3lu-47">
          <mxGeometry relative="1" as="geometry">
            <mxPoint x="1719" y="54.5" as="sourcePoint" />
            <mxPoint x="1849.5" y="-50" as="targetPoint" />
          </mxGeometry>
        </mxCell>
        <mxCell id="-szrvnAvTn_Sn9t5M3lu-55" value="M" style="resizable=0;html=1;whiteSpace=wrap;align=left;verticalAlign=bottom;" connectable="0" vertex="1" parent="-szrvnAvTn_Sn9t5M3lu-54">
          <mxGeometry x="-1" relative="1" as="geometry" />
        </mxCell>
        <mxCell id="-szrvnAvTn_Sn9t5M3lu-56" value="(1,N)" style="edgeLabel;html=1;align=center;verticalAlign=middle;resizable=0;points=[];fontColor=light-dark(#000000,#000000);labelBackgroundColor=light-dark(#FFFFFF,#FFFFFF);" vertex="1" connectable="0" parent="-szrvnAvTn_Sn9t5M3lu-54">
          <mxGeometry x="-0.1179" y="-2" relative="1" as="geometry">
            <mxPoint x="-16" y="-8" as="offset" />
          </mxGeometry>
        </mxCell>
        <mxCell id="-szrvnAvTn_Sn9t5M3lu-57" value="&lt;font style=&quot;color: light-dark(rgb(0, 0, 0), rgb(0, 0, 0));&quot;&gt;Allergy&lt;/font&gt;" style="whiteSpace=wrap;html=1;align=center;perimeterSpacing=1;rounded=0;strokeWidth=1;strokeColor=light-dark(#000000,#000000);fillStyle=solid;gradientColor=none;fillColor=light-dark(#FFFFFF,#FFFFFF);perimeter=rectanglePerimeter;fixDash=0;" vertex="1" parent="1">
          <mxGeometry x="1730" y="-350" width="100" height="40" as="geometry" />
        </mxCell>
        <mxCell id="-szrvnAvTn_Sn9t5M3lu-58" value="" style="edgeStyle=orthogonalEdgeStyle;rounded=0;orthogonalLoop=1;jettySize=auto;html=1;endArrow=none;startFill=0;" edge="1" parent="1" source="-szrvnAvTn_Sn9t5M3lu-59" target="-szrvnAvTn_Sn9t5M3lu-60">
          <mxGeometry relative="1" as="geometry" />
        </mxCell>
        <mxCell id="-szrvnAvTn_Sn9t5M3lu-59" value="Belong" style="shape=rhombus;perimeter=rhombusPerimeter;whiteSpace=wrap;html=1;align=center;fillColor=light-dark(#FFFFFF,#FFFFFF);strokeColor=light-dark(#000000,#000000);fillStyle=solid;fontColor=light-dark(#000000,#000000);perimeterSpacing=1;gradientColor=none;" vertex="1" parent="1">
          <mxGeometry x="1490" y="-360" width="120" height="60" as="geometry" />
        </mxCell>
        <mxCell id="-szrvnAvTn_Sn9t5M3lu-60" value="&lt;font style=&quot;color: light-dark(rgb(0, 0, 0), rgb(0, 0, 0));&quot;&gt;Category&lt;/font&gt;" style="whiteSpace=wrap;html=1;align=center;perimeterSpacing=1;rounded=0;strokeWidth=1;strokeColor=light-dark(#000000,#000000);fillStyle=solid;gradientColor=none;fillColor=light-dark(#FFFFFF,#FFFFFF);perimeter=rectanglePerimeter;fixDash=0;" vertex="1" parent="1">
          <mxGeometry x="1320" y="-350" width="100" height="40" as="geometry" />
        </mxCell>
        <mxCell id="-szrvnAvTn_Sn9t5M3lu-61" value="" style="endArrow=none;html=1;rounded=0;exitX=1;exitY=0.5;exitDx=0;exitDy=0;entryX=0;entryY=0.5;entryDx=0;entryDy=0;strokeColor=light-dark(#000000,#000000);" edge="1" parent="1" source="-szrvnAvTn_Sn9t5M3lu-59" target="-szrvnAvTn_Sn9t5M3lu-57">
          <mxGeometry relative="1" as="geometry">
            <mxPoint x="1651" as="sourcePoint" />
            <mxPoint x="1729" as="targetPoint" />
            <Array as="points" />
          </mxGeometry>
        </mxCell>
        <mxCell id="-szrvnAvTn_Sn9t5M3lu-62" value="(1,1)" style="edgeLabel;html=1;align=center;verticalAlign=middle;resizable=0;points=[];fontColor=light-dark(#000000,#000000);labelBackgroundColor=light-dark(#FFFFFF,#FFFFFF);" vertex="1" connectable="0" parent="-szrvnAvTn_Sn9t5M3lu-61">
          <mxGeometry x="-0.1179" y="-2" relative="1" as="geometry">
            <mxPoint x="7" y="-12" as="offset" />
          </mxGeometry>
        </mxCell>
        <mxCell id="-szrvnAvTn_Sn9t5M3lu-63" value="" style="endArrow=none;html=1;rounded=0;exitX=1;exitY=0.5;exitDx=0;exitDy=0;entryX=0;entryY=0.5;entryDx=0;entryDy=0;strokeColor=light-dark(#000000,#000000);" edge="1" parent="1" source="-szrvnAvTn_Sn9t5M3lu-60">
          <mxGeometry relative="1" as="geometry">
            <mxPoint x="1591" y="-320" as="sourcePoint" />
            <mxPoint x="1458.9999999999995" y="-330.0000000000002" as="targetPoint" />
            <Array as="points" />
          </mxGeometry>
        </mxCell>
        <mxCell id="-szrvnAvTn_Sn9t5M3lu-64" value="(1,N)" style="edgeLabel;html=1;align=center;verticalAlign=middle;resizable=0;points=[];fontColor=light-dark(#000000,#000000);labelBackgroundColor=light-dark(#FFFFFF,#FFFFFF);" vertex="1" connectable="0" parent="-szrvnAvTn_Sn9t5M3lu-63">
          <mxGeometry x="-0.1179" y="-2" relative="1" as="geometry">
            <mxPoint x="13" y="-12" as="offset" />
          </mxGeometry>
        </mxCell>
        <mxCell id="-szrvnAvTn_Sn9t5M3lu-65" value="Is" style="shape=rhombus;perimeter=rhombusPerimeter;whiteSpace=wrap;html=1;align=center;fillColor=light-dark(#FFFFFF,#FFFFFF);strokeColor=light-dark(#000000,#000000);fillStyle=solid;fontColor=light-dark(#000000,#000000);perimeterSpacing=1;gradientColor=none;" vertex="1" parent="1">
          <mxGeometry x="1960" y="-360" width="120" height="60" as="geometry" />
        </mxCell>
        <mxCell id="-szrvnAvTn_Sn9t5M3lu-66" value="" style="endArrow=none;html=1;rounded=0;exitX=0;exitY=0.5;exitDx=0;exitDy=0;entryX=1;entryY=0.5;entryDx=0;entryDy=0;strokeColor=light-dark(#000000,#000000);" edge="1" parent="1" source="-szrvnAvTn_Sn9t5M3lu-65" target="-szrvnAvTn_Sn9t5M3lu-57">
          <mxGeometry relative="1" as="geometry">
            <mxPoint x="1731" y="-170" as="sourcePoint" />
            <mxPoint x="1764" y="-111" as="targetPoint" />
            <Array as="points" />
          </mxGeometry>
        </mxCell>
        <mxCell id="-szrvnAvTn_Sn9t5M3lu-67" value="(1,1)" style="edgeLabel;html=1;align=center;verticalAlign=middle;resizable=0;points=[];fontColor=light-dark(#000000,#000000);labelBackgroundColor=light-dark(#FFFFFF,#FFFFFF);" vertex="1" connectable="0" parent="-szrvnAvTn_Sn9t5M3lu-66">
          <mxGeometry x="-0.1179" y="-2" relative="1" as="geometry">
            <mxPoint x="-3" y="-8" as="offset" />
          </mxGeometry>
        </mxCell>
        <mxCell id="-szrvnAvTn_Sn9t5M3lu-68" value="&lt;font&gt;Allergy_Type&lt;/font&gt;" style="whiteSpace=wrap;html=1;align=center;perimeterSpacing=1;rounded=0;strokeWidth=1;strokeColor=light-dark(#000000,#000000);fillStyle=solid;gradientColor=none;fillColor=light-dark(#FFFFFF,#FFFFFF);perimeter=rectanglePerimeter;fixDash=0;fontColor=light-dark(#000000,#000000);" vertex="1" parent="1">
          <mxGeometry x="2160.54" y="-350" width="100" height="40" as="geometry" />
        </mxCell>
        <mxCell id="-szrvnAvTn_Sn9t5M3lu-69" value="" style="endArrow=none;html=1;rounded=0;exitX=0;exitY=0.5;exitDx=0;exitDy=0;entryX=1;entryY=0.5;entryDx=0;entryDy=0;strokeColor=light-dark(#000000,#000000);" edge="1" parent="1" source="-szrvnAvTn_Sn9t5M3lu-68" target="-szrvnAvTn_Sn9t5M3lu-65">
          <mxGeometry relative="1" as="geometry">
            <mxPoint x="1849" y="-320" as="sourcePoint" />
            <mxPoint x="1815" y="-261" as="targetPoint" />
            <Array as="points" />
          </mxGeometry>
        </mxCell>
        <mxCell id="-szrvnAvTn_Sn9t5M3lu-70" value="(1,N)" style="edgeLabel;html=1;align=center;verticalAlign=middle;resizable=0;points=[];fontColor=light-dark(#000000,#000000);labelBackgroundColor=light-dark(#FFFFFF,#FFFFFF);" vertex="1" connectable="0" parent="-szrvnAvTn_Sn9t5M3lu-69">
          <mxGeometry x="-0.1179" y="-2" relative="1" as="geometry">
            <mxPoint x="2" y="-8" as="offset" />
          </mxGeometry>
        </mxCell>
        <mxCell id="-szrvnAvTn_Sn9t5M3lu-71" style="edgeStyle=orthogonalEdgeStyle;rounded=0;orthogonalLoop=1;jettySize=auto;html=1;exitX=1;exitY=0.5;exitDx=0;exitDy=0;entryX=0;entryY=0.5;entryDx=0;entryDy=0;endArrow=none;startFill=0;" edge="1" parent="1" source="-szrvnAvTn_Sn9t5M3lu-72" target="-szrvnAvTn_Sn9t5M3lu-53">
          <mxGeometry relative="1" as="geometry" />
        </mxCell>
        <mxCell id="-szrvnAvTn_Sn9t5M3lu-72" value="Attend" style="shape=rhombus;perimeter=rhombusPerimeter;whiteSpace=wrap;html=1;align=center;fillColor=light-dark(#FFFFFF,#FFFFFF);strokeColor=light-dark(#000000,#000000);fillStyle=solid;fontColor=light-dark(#000000,#000000);perimeterSpacing=1;gradientColor=none;" vertex="1" parent="1">
          <mxGeometry x="1450" y="290" width="120" height="60" as="geometry" />
        </mxCell>
        <mxCell id="-szrvnAvTn_Sn9t5M3lu-73" value="&lt;span style=&quot;color: rgb(0, 0, 0); font-family: Helvetica; font-size: 11px; font-style: normal; font-variant-ligatures: normal; font-variant-caps: normal; font-weight: 400; letter-spacing: normal; orphans: 2; text-align: center; text-indent: 0px; text-transform: none; widows: 2; word-spacing: 0px; -webkit-text-stroke-width: 0px; white-space: nowrap; background-color: rgb(255, 255, 255); text-decoration-thickness: initial; text-decoration-style: initial; text-decoration-color: initial; display: inline !important; float: none;&quot;&gt;(1,N)&lt;/span&gt;" style="text;whiteSpace=wrap;html=1;" vertex="1" parent="1">
          <mxGeometry x="1305" y="245" width="30" height="30" as="geometry" />
        </mxCell>
        <mxCell id="-szrvnAvTn_Sn9t5M3lu-74" value="&lt;span style=&quot;color: rgb(0, 0, 0); font-family: Helvetica; font-size: 11px; font-style: normal; font-variant-ligatures: normal; font-variant-caps: normal; font-weight: 400; letter-spacing: normal; orphans: 2; text-align: center; text-indent: 0px; text-transform: none; widows: 2; word-spacing: 0px; -webkit-text-stroke-width: 0px; white-space: nowrap; background-color: rgb(255, 255, 255); text-decoration-thickness: initial; text-decoration-style: initial; text-decoration-color: initial; display: inline !important; float: none;&quot;&gt;(1,1)&lt;/span&gt;" style="text;whiteSpace=wrap;html=1;" vertex="1" parent="1">
          <mxGeometry x="1630" y="290" width="60" height="40" as="geometry" />
        </mxCell>
        <mxCell id="-szrvnAvTn_Sn9t5M3lu-75" value="M" style="resizable=0;html=1;whiteSpace=wrap;align=left;verticalAlign=bottom;" connectable="0" vertex="1" parent="1">
          <mxGeometry x="2071.0299999999997" y="320" as="geometry" />
        </mxCell>
        <mxCell id="-szrvnAvTn_Sn9t5M3lu-76" value="" style="edgeStyle=orthogonalEdgeStyle;rounded=0;orthogonalLoop=1;jettySize=auto;html=1;endArrow=none;startFill=0;" edge="1" parent="1" source="-szrvnAvTn_Sn9t5M3lu-78" target="-szrvnAvTn_Sn9t5M3lu-53">
          <mxGeometry relative="1" as="geometry" />
        </mxCell>
        <mxCell id="-szrvnAvTn_Sn9t5M3lu-77" value="" style="edgeStyle=orthogonalEdgeStyle;rounded=0;orthogonalLoop=1;jettySize=auto;html=1;endArrow=none;startFill=0;" edge="1" parent="1" source="-szrvnAvTn_Sn9t5M3lu-78" target="-szrvnAvTn_Sn9t5M3lu-53">
          <mxGeometry relative="1" as="geometry" />
        </mxCell>
        <mxCell id="-szrvnAvTn_Sn9t5M3lu-78" value="Is" style="shape=rhombus;perimeter=rhombusPerimeter;whiteSpace=wrap;html=1;align=center;fillColor=light-dark(#FFFFFF,#FFFFFF);strokeColor=light-dark(#000000,#000000);fillStyle=solid;fontColor=light-dark(#000000,#000000);perimeterSpacing=1;gradientColor=none;" vertex="1" parent="1">
          <mxGeometry x="1930.03" y="290" width="120" height="60" as="geometry" />
        </mxCell>
        <mxCell id="-szrvnAvTn_Sn9t5M3lu-79" value="(1,1)" style="edgeLabel;html=1;align=center;verticalAlign=middle;resizable=0;points=[];fontColor=light-dark(#000000,#000000);labelBackgroundColor=light-dark(#FFFFFF,#FFFFFF);" vertex="1" connectable="0" parent="1">
          <mxGeometry x="1931.0607519107698" y="310.0028001050441" as="geometry">
            <mxPoint x="-28" y="-4" as="offset" />
          </mxGeometry>
        </mxCell>
        <mxCell id="-szrvnAvTn_Sn9t5M3lu-80" value="&lt;font&gt;Encounter_Type&lt;/font&gt;" style="whiteSpace=wrap;html=1;align=center;perimeterSpacing=1;rounded=0;strokeWidth=1;strokeColor=light-dark(#000000,#000000);fillStyle=solid;gradientColor=none;fillColor=light-dark(#FFFFFF,#FFFFFF);perimeter=rectanglePerimeter;fixDash=0;fontColor=light-dark(#000000,#000000);" vertex="1" parent="1">
          <mxGeometry x="2100.03" y="300" width="100" height="40" as="geometry" />
        </mxCell>
        <mxCell id="-szrvnAvTn_Sn9t5M3lu-81" value="" style="endArrow=none;html=1;rounded=0;exitX=0;exitY=0.5;exitDx=0;exitDy=0;entryX=1;entryY=0.5;entryDx=0;entryDy=0;strokeColor=light-dark(#000000,#000000);" edge="1" parent="1" source="-szrvnAvTn_Sn9t5M3lu-80" target="-szrvnAvTn_Sn9t5M3lu-78">
          <mxGeometry relative="1" as="geometry">
            <mxPoint x="1939.03" y="330" as="sourcePoint" />
            <mxPoint x="1905.03" y="389" as="targetPoint" />
            <Array as="points" />
          </mxGeometry>
        </mxCell>
        <mxCell id="-szrvnAvTn_Sn9t5M3lu-82" value="(1,N)" style="edgeLabel;html=1;align=center;verticalAlign=middle;resizable=0;points=[];fontColor=light-dark(#000000,#000000);labelBackgroundColor=light-dark(#FFFFFF,#FFFFFF);" vertex="1" connectable="0" parent="-szrvnAvTn_Sn9t5M3lu-81">
          <mxGeometry x="-0.1179" y="-2" relative="1" as="geometry">
            <mxPoint x="2" y="-8" as="offset" />
          </mxGeometry>
        </mxCell>
        <mxCell id="-szrvnAvTn_Sn9t5M3lu-83" value="M" style="resizable=0;html=1;whiteSpace=wrap;align=left;verticalAlign=bottom;" connectable="0" vertex="1" parent="1">
          <mxGeometry x="2072.06" y="450" as="geometry" />
        </mxCell>
        <mxCell id="-szrvnAvTn_Sn9t5M3lu-84" style="edgeStyle=orthogonalEdgeStyle;rounded=0;orthogonalLoop=1;jettySize=auto;html=1;entryX=0.75;entryY=1;entryDx=0;entryDy=0;endArrow=none;startFill=0;" edge="1" parent="1" source="-szrvnAvTn_Sn9t5M3lu-85" target="-szrvnAvTn_Sn9t5M3lu-53">
          <mxGeometry relative="1" as="geometry" />
        </mxCell>
        <mxCell id="-szrvnAvTn_Sn9t5M3lu-85" value="Belong" style="shape=rhombus;perimeter=rhombusPerimeter;whiteSpace=wrap;html=1;align=center;fillColor=light-dark(#FFFFFF,#FFFFFF);strokeColor=light-dark(#000000,#000000);fillStyle=solid;fontColor=light-dark(#000000,#000000);perimeterSpacing=1;gradientColor=none;" vertex="1" parent="1">
          <mxGeometry x="1931.06" y="420" width="120" height="60" as="geometry" />
        </mxCell>
        <mxCell id="-szrvnAvTn_Sn9t5M3lu-86" value="(1,1)" style="edgeLabel;html=1;align=center;verticalAlign=middle;resizable=0;points=[];fontColor=light-dark(#000000,#000000);labelBackgroundColor=light-dark(#FFFFFF,#FFFFFF);" vertex="1" connectable="0" parent="1">
          <mxGeometry x="1911.0307519107698" y="440.0028001050441" as="geometry">
            <mxPoint x="-28" y="-4" as="offset" />
          </mxGeometry>
        </mxCell>
        <mxCell id="-szrvnAvTn_Sn9t5M3lu-87" value="" style="endArrow=none;html=1;rounded=0;exitX=0;exitY=0.5;exitDx=0;exitDy=0;entryX=1;entryY=0.5;entryDx=0;entryDy=0;strokeColor=light-dark(#000000,#000000);" edge="1" parent="1" target="-szrvnAvTn_Sn9t5M3lu-85">
          <mxGeometry relative="1" as="geometry">
            <mxPoint x="2100.03" y="450" as="sourcePoint" />
            <mxPoint x="1906.06" y="519" as="targetPoint" />
            <Array as="points" />
          </mxGeometry>
        </mxCell>
        <mxCell id="-szrvnAvTn_Sn9t5M3lu-88" value="(1,N)" style="edgeLabel;html=1;align=center;verticalAlign=middle;resizable=0;points=[];fontColor=light-dark(#000000,#000000);labelBackgroundColor=light-dark(#FFFFFF,#FFFFFF);" vertex="1" connectable="0" parent="-szrvnAvTn_Sn9t5M3lu-87">
          <mxGeometry x="-0.1179" y="-2" relative="1" as="geometry">
            <mxPoint x="2" y="-8" as="offset" />
          </mxGeometry>
        </mxCell>
        <mxCell id="-szrvnAvTn_Sn9t5M3lu-89" value="Class" style="whiteSpace=wrap;html=1;align=center;perimeterSpacing=1;rounded=0;strokeWidth=1;strokeColor=light-dark(#000000,#000000);fillStyle=solid;gradientColor=none;fillColor=light-dark(#FFFFFF,#FFFFFF);perimeter=rectanglePerimeter;fixDash=0;fontColor=light-dark(#000000,#000000);" vertex="1" parent="1">
          <mxGeometry x="2100.03" y="430" width="100" height="40" as="geometry" />
        </mxCell>
        <mxCell id="-szrvnAvTn_Sn9t5M3lu-90" value="" style="edgeStyle=orthogonalEdgeStyle;rounded=0;orthogonalLoop=1;jettySize=auto;html=1;endArrow=none;startFill=0;" edge="1" parent="1" source="-szrvnAvTn_Sn9t5M3lu-91" target="-szrvnAvTn_Sn9t5M3lu-94">
          <mxGeometry relative="1" as="geometry" />
        </mxCell>
        <mxCell id="-szrvnAvTn_Sn9t5M3lu-91" value="Procedure" style="whiteSpace=wrap;html=1;align=center;perimeterSpacing=1;rounded=0;strokeWidth=1;strokeColor=light-dark(#000000,#000000);fillStyle=solid;gradientColor=none;fillColor=light-dark(#FFFFFF,#FFFFFF);perimeter=rectanglePerimeter;fixDash=0;" vertex="1" parent="1">
          <mxGeometry x="1390" y="220" width="100" height="40" as="geometry" />
        </mxCell>
        <mxCell id="-szrvnAvTn_Sn9t5M3lu-92" value="(1,N)" style="edgeLabel;html=1;align=center;verticalAlign=middle;resizable=0;points=[];fontColor=light-dark(#000000,#000000);labelBackgroundColor=light-dark(#FFFFFF,#FFFFFF);" vertex="1" connectable="0" parent="1">
          <mxGeometry x="1520.0005882352937" y="230" as="geometry" />
        </mxCell>
        <mxCell id="-szrvnAvTn_Sn9t5M3lu-93" value="" style="edgeStyle=orthogonalEdgeStyle;rounded=0;orthogonalLoop=1;jettySize=auto;html=1;endArrow=none;startFill=0;" edge="1" parent="1" source="-szrvnAvTn_Sn9t5M3lu-94">
          <mxGeometry relative="1" as="geometry">
            <mxPoint x="1740" y="300" as="targetPoint" />
          </mxGeometry>
        </mxCell>
        <mxCell id="-szrvnAvTn_Sn9t5M3lu-94" value="Carry out" style="shape=rhombus;perimeter=rhombusPerimeter;whiteSpace=wrap;html=1;align=center;fillColor=light-dark(#FFFFFF,#FFFFFF);strokeColor=light-dark(#000000,#000000);fillStyle=solid;fontColor=light-dark(#000000,#000000);perimeterSpacing=1;gradientColor=none;" vertex="1" parent="1">
          <mxGeometry x="1560" y="210" width="120" height="60" as="geometry" />
        </mxCell>
        <mxCell id="-szrvnAvTn_Sn9t5M3lu-95" value="&lt;span style=&quot;color: rgb(0, 0, 0); font-family: Helvetica; font-size: 11px; font-style: normal; font-variant-ligatures: normal; font-variant-caps: normal; font-weight: 400; letter-spacing: normal; orphans: 2; text-align: center; text-indent: 0px; text-transform: none; widows: 2; word-spacing: 0px; -webkit-text-stroke-width: 0px; white-space: nowrap; background-color: rgb(255, 255, 255); text-decoration-thickness: initial; text-decoration-style: initial; text-decoration-color: initial; display: inline !important; float: none;&quot;&gt;(1,N)&lt;/span&gt;" style="text;whiteSpace=wrap;html=1;" vertex="1" parent="1">
          <mxGeometry x="1700" y="240" width="60" height="40" as="geometry" />
        </mxCell>
        <mxCell id="-szrvnAvTn_Sn9t5M3lu-96" value="Apply" style="shape=rhombus;perimeter=rhombusPerimeter;whiteSpace=wrap;html=1;align=center;fillColor=light-dark(#FFFFFF,#FFFFFF);strokeColor=light-dark(#000000,#000000);fillStyle=solid;fontColor=light-dark(#000000,#000000);perimeterSpacing=1;gradientColor=none;" vertex="1" parent="1">
          <mxGeometry x="2420" y="-230" width="120" height="60" as="geometry" />
        </mxCell>
        <mxCell id="-szrvnAvTn_Sn9t5M3lu-97" style="edgeStyle=orthogonalEdgeStyle;rounded=0;orthogonalLoop=1;jettySize=auto;html=1;exitX=1;exitY=0.5;exitDx=0;exitDy=0;entryX=0;entryY=0.5;entryDx=0;entryDy=0;endArrow=none;startFill=0;" edge="1" parent="1" source="-szrvnAvTn_Sn9t5M3lu-98" target="-szrvnAvTn_Sn9t5M3lu-239">
          <mxGeometry relative="1" as="geometry" />
        </mxCell>
        <mxCell id="-szrvnAvTn_Sn9t5M3lu-98" value="Medication" style="whiteSpace=wrap;html=1;align=center;perimeterSpacing=1;rounded=0;strokeWidth=1;strokeColor=light-dark(#000000,#000000);fillStyle=solid;gradientColor=none;fillColor=light-dark(#FFFFFF,#FFFFFF);perimeter=rectanglePerimeter;fixDash=0;fontColor=light-dark(#000000,#000000);" vertex="1" parent="1">
          <mxGeometry x="2650" y="-220" width="100" height="40" as="geometry" />
        </mxCell>
        <mxCell id="-szrvnAvTn_Sn9t5M3lu-99" value="" style="endArrow=none;html=1;rounded=0;exitX=0;exitY=0.5;exitDx=0;exitDy=0;entryX=1;entryY=0.5;entryDx=0;entryDy=0;strokeColor=light-dark(#000000,#000000);" edge="1" parent="1" source="-szrvnAvTn_Sn9t5M3lu-98" target="-szrvnAvTn_Sn9t5M3lu-96">
          <mxGeometry relative="1" as="geometry">
            <mxPoint x="2248.97" y="-60" as="sourcePoint" />
            <mxPoint x="2214.97" y="-1" as="targetPoint" />
            <Array as="points" />
          </mxGeometry>
        </mxCell>
        <mxCell id="-szrvnAvTn_Sn9t5M3lu-100" value="(1,N)" style="edgeLabel;html=1;align=center;verticalAlign=middle;resizable=0;points=[];fontColor=light-dark(#000000,#000000);labelBackgroundColor=light-dark(#FFFFFF,#FFFFFF);" vertex="1" connectable="0" parent="-szrvnAvTn_Sn9t5M3lu-99">
          <mxGeometry x="-0.1179" y="-2" relative="1" as="geometry">
            <mxPoint x="-1" y="-18" as="offset" />
          </mxGeometry>
        </mxCell>
        <mxCell id="-szrvnAvTn_Sn9t5M3lu-101" value="(1,N)" style="edgeLabel;html=1;align=center;verticalAlign=middle;resizable=0;points=[];fontColor=light-dark(#000000,#000000);labelBackgroundColor=light-dark(#FFFFFF,#FFFFFF);" vertex="1" connectable="0" parent="1">
          <mxGeometry x="2319.9999999999995" y="-139.99647058823524" as="geometry">
            <mxPoint x="139" y="-19" as="offset" />
          </mxGeometry>
        </mxCell>
        <mxCell id="-szrvnAvTn_Sn9t5M3lu-102" value="(1,N)" style="edgeLabel;html=1;align=center;verticalAlign=middle;resizable=0;points=[];fontColor=light-dark(#000000,#000000);labelBackgroundColor=light-dark(#FFFFFF,#FFFFFF);" vertex="1" connectable="0" parent="1">
          <mxGeometry x="2009.9999999999995" y="-99.99647058823524" as="geometry">
            <mxPoint x="182" y="-112" as="offset" />
          </mxGeometry>
        </mxCell>
        <mxCell id="-szrvnAvTn_Sn9t5M3lu-103" style="edgeStyle=orthogonalEdgeStyle;rounded=0;orthogonalLoop=1;jettySize=auto;html=1;exitX=1;exitY=0.5;exitDx=0;exitDy=0;entryX=0.5;entryY=1;entryDx=0;entryDy=0;endArrow=none;startFill=0;" edge="1" parent="1" source="-szrvnAvTn_Sn9t5M3lu-105" target="-szrvnAvTn_Sn9t5M3lu-46">
          <mxGeometry relative="1" as="geometry" />
        </mxCell>
        <mxCell id="-szrvnAvTn_Sn9t5M3lu-104" style="edgeStyle=orthogonalEdgeStyle;rounded=0;orthogonalLoop=1;jettySize=auto;html=1;exitX=0;exitY=0.5;exitDx=0;exitDy=0;entryX=0.642;entryY=0.048;entryDx=0;entryDy=0;endArrow=none;startFill=0;entryPerimeter=0;" edge="1" parent="1" source="-szrvnAvTn_Sn9t5M3lu-105" target="-szrvnAvTn_Sn9t5M3lu-53">
          <mxGeometry relative="1" as="geometry">
            <Array as="points">
              <mxPoint x="1794" y="-60" />
            </Array>
          </mxGeometry>
        </mxCell>
        <mxCell id="-szrvnAvTn_Sn9t5M3lu-105" value="Reported" style="shape=rhombus;perimeter=rhombusPerimeter;whiteSpace=wrap;html=1;align=center;fillColor=light-dark(#FFFFFF,#FFFFFF);strokeColor=light-dark(#000000,#000000);fillStyle=solid;fontColor=light-dark(#000000,#000000);perimeterSpacing=1;gradientColor=none;" vertex="1" parent="1">
          <mxGeometry x="1851.03" y="-90" width="120" height="60" as="geometry" />
        </mxCell>
        <mxCell id="-szrvnAvTn_Sn9t5M3lu-106" value="&lt;span style=&quot;color: rgb(0, 0, 0); font-family: Helvetica; font-size: 11px; font-style: normal; font-variant-ligatures: normal; font-variant-caps: normal; font-weight: 400; letter-spacing: normal; orphans: 2; text-align: center; text-indent: 0px; text-transform: none; widows: 2; word-spacing: 0px; -webkit-text-stroke-width: 0px; white-space: nowrap; background-color: rgb(255, 255, 255); text-decoration-thickness: initial; text-decoration-style: initial; text-decoration-color: initial; display: inline !important; float: none;&quot;&gt;(1,N)&lt;/span&gt;" style="text;whiteSpace=wrap;html=1;" vertex="1" parent="1">
          <mxGeometry x="1971.03" y="-90" width="60" height="40" as="geometry" />
        </mxCell>
        <mxCell id="-szrvnAvTn_Sn9t5M3lu-107" value="&lt;span style=&quot;color: rgb(0, 0, 0); font-family: Helvetica; font-size: 11px; font-style: normal; font-variant-ligatures: normal; font-variant-caps: normal; font-weight: 400; letter-spacing: normal; orphans: 2; text-align: center; text-indent: 0px; text-transform: none; widows: 2; word-spacing: 0px; -webkit-text-stroke-width: 0px; white-space: nowrap; background-color: rgb(255, 255, 255); text-decoration-thickness: initial; text-decoration-style: initial; text-decoration-color: initial; display: inline !important; float: none;&quot;&gt;(1,N)&lt;/span&gt;" style="text;whiteSpace=wrap;html=1;" vertex="1" parent="1">
          <mxGeometry x="1810" y="-90" width="60" height="40" as="geometry" />
        </mxCell>
        <mxCell id="-szrvnAvTn_Sn9t5M3lu-116" style="edgeStyle=orthogonalEdgeStyle;rounded=0;orthogonalLoop=1;jettySize=auto;html=1;exitX=0;exitY=0.5;exitDx=0;exitDy=0;entryX=0.25;entryY=1;entryDx=0;entryDy=0;endArrow=none;startFill=0;" edge="1" parent="1" source="-szrvnAvTn_Sn9t5M3lu-117" target="-szrvnAvTn_Sn9t5M3lu-53">
          <mxGeometry relative="1" as="geometry" />
        </mxCell>
        <mxCell id="-szrvnAvTn_Sn9t5M3lu-117" value="Administer" style="shape=rhombus;perimeter=rhombusPerimeter;whiteSpace=wrap;html=1;align=center;fillColor=light-dark(#FFFFFF,#FFFFFF);strokeColor=light-dark(#000000,#000000);fillStyle=solid;fontColor=light-dark(#000000,#000000);perimeterSpacing=1;gradientColor=none;" vertex="1" parent="1">
          <mxGeometry x="1930.0300000000002" y="630" width="120" height="60" as="geometry" />
        </mxCell>
        <mxCell id="-szrvnAvTn_Sn9t5M3lu-118" value="" style="endArrow=none;html=1;rounded=0;exitX=1;exitY=0.5;exitDx=0;exitDy=0;strokeColor=light-dark(#000000,#000000);entryX=0;entryY=0.5;entryDx=0;entryDy=0;" edge="1" parent="1" source="-szrvnAvTn_Sn9t5M3lu-117" target="-szrvnAvTn_Sn9t5M3lu-120">
          <mxGeometry relative="1" as="geometry">
            <mxPoint x="1981.0300000000002" y="840" as="sourcePoint" />
            <mxPoint x="2120.03" y="660" as="targetPoint" />
            <Array as="points">
              <mxPoint x="2084.03" y="660" />
            </Array>
          </mxGeometry>
        </mxCell>
        <mxCell id="-szrvnAvTn_Sn9t5M3lu-119" value="(1,N)" style="edgeLabel;html=1;align=center;verticalAlign=middle;resizable=0;points=[];fontColor=light-dark(#000000,#000000);labelBackgroundColor=light-dark(#FFFFFF,#FFFFFF);" vertex="1" connectable="0" parent="-szrvnAvTn_Sn9t5M3lu-118">
          <mxGeometry x="-0.1179" y="-2" relative="1" as="geometry">
            <mxPoint x="8" y="-18" as="offset" />
          </mxGeometry>
        </mxCell>
        <mxCell id="-szrvnAvTn_Sn9t5M3lu-120" value="&lt;font style=&quot;color: light-dark(rgb(0, 0, 0), rgb(0, 0, 0));&quot;&gt;Immunization&lt;/font&gt;" style="whiteSpace=wrap;html=1;align=center;perimeterSpacing=1;rounded=0;strokeWidth=1;strokeColor=light-dark(#000000,#000000);fillStyle=solid;gradientColor=none;fillColor=light-dark(#FFFFFF,#FFFFFF);perimeter=rectanglePerimeter;fixDash=0;" vertex="1" parent="1">
          <mxGeometry x="2100.03" y="640" width="100" height="40" as="geometry" />
        </mxCell>
        <mxCell id="-szrvnAvTn_Sn9t5M3lu-121" style="edgeStyle=orthogonalEdgeStyle;rounded=0;orthogonalLoop=1;jettySize=auto;html=1;exitX=0;exitY=0.5;exitDx=0;exitDy=0;entryX=0.5;entryY=1;entryDx=0;entryDy=0;endArrow=none;startFill=0;" edge="1" parent="1" source="-szrvnAvTn_Sn9t5M3lu-122" target="-szrvnAvTn_Sn9t5M3lu-53">
          <mxGeometry relative="1" as="geometry" />
        </mxCell>
        <mxCell id="-szrvnAvTn_Sn9t5M3lu-122" value="Require" style="shape=rhombus;perimeter=rhombusPerimeter;whiteSpace=wrap;html=1;align=center;fillColor=light-dark(#FFFFFF,#FFFFFF);strokeColor=light-dark(#000000,#000000);fillStyle=solid;fontColor=light-dark(#000000,#000000);perimeterSpacing=1;gradientColor=none;" vertex="1" parent="1">
          <mxGeometry x="1930.03" y="525" width="120" height="60" as="geometry" />
        </mxCell>
        <mxCell id="-szrvnAvTn_Sn9t5M3lu-123" value="" style="endArrow=none;html=1;rounded=0;exitX=1;exitY=0.5;exitDx=0;exitDy=0;strokeColor=light-dark(#000000,#000000);entryX=0;entryY=0.5;entryDx=0;entryDy=0;" edge="1" parent="1" source="-szrvnAvTn_Sn9t5M3lu-122" target="-szrvnAvTn_Sn9t5M3lu-125">
          <mxGeometry relative="1" as="geometry">
            <mxPoint x="1988.06" y="735" as="sourcePoint" />
            <mxPoint x="2127.06" y="555" as="targetPoint" />
            <Array as="points">
              <mxPoint x="2091.06" y="555" />
            </Array>
          </mxGeometry>
        </mxCell>
        <mxCell id="-szrvnAvTn_Sn9t5M3lu-124" value="(1,N)" style="edgeLabel;html=1;align=center;verticalAlign=middle;resizable=0;points=[];fontColor=light-dark(#000000,#000000);labelBackgroundColor=light-dark(#FFFFFF,#FFFFFF);" vertex="1" connectable="0" parent="-szrvnAvTn_Sn9t5M3lu-123">
          <mxGeometry x="-0.1179" y="-2" relative="1" as="geometry">
            <mxPoint x="8" y="-17" as="offset" />
          </mxGeometry>
        </mxCell>
        <mxCell id="-szrvnAvTn_Sn9t5M3lu-125" value="Supply" style="whiteSpace=wrap;html=1;align=center;perimeterSpacing=1;rounded=0;strokeWidth=1;strokeColor=light-dark(#000000,#000000);fillStyle=solid;gradientColor=none;fillColor=light-dark(#FFFFFF,#FFFFFF);perimeter=rectanglePerimeter;fixDash=0;textShadow=1;fontColor=light-dark(#000000,#000000);" vertex="1" parent="1">
          <mxGeometry x="2100.0299999999997" y="535" width="100" height="40" as="geometry" />
        </mxCell>
        <mxCell id="-szrvnAvTn_Sn9t5M3lu-130" value="&lt;span style=&quot;color: rgb(0, 0, 0); font-family: Helvetica; font-size: 11px; font-style: normal; font-variant-ligatures: normal; font-variant-caps: normal; font-weight: 400; letter-spacing: normal; orphans: 2; text-align: center; text-indent: 0px; text-transform: none; widows: 2; word-spacing: 0px; -webkit-text-stroke-width: 0px; white-space: nowrap; background-color: rgb(255, 255, 255); text-decoration-thickness: initial; text-decoration-style: initial; text-decoration-color: initial; display: inline !important; float: none;&quot;&gt;(1,N)&lt;/span&gt;" style="text;whiteSpace=wrap;html=1;" vertex="1" parent="1">
          <mxGeometry x="1860" y="530" width="60" height="40" as="geometry" />
        </mxCell>
        <mxCell id="-szrvnAvTn_Sn9t5M3lu-131" value="&lt;span style=&quot;color: rgb(0, 0, 0); font-family: Helvetica; font-size: 11px; font-style: normal; font-variant-ligatures: normal; font-variant-caps: normal; font-weight: 400; letter-spacing: normal; orphans: 2; text-align: center; text-indent: 0px; text-transform: none; widows: 2; word-spacing: 0px; -webkit-text-stroke-width: 0px; white-space: nowrap; background-color: rgb(255, 255, 255); text-decoration-thickness: initial; text-decoration-style: initial; text-decoration-color: initial; display: inline !important; float: none;&quot;&gt;(1,N)&lt;/span&gt;" style="text;whiteSpace=wrap;html=1;" vertex="1" parent="1">
          <mxGeometry x="1840" y="630" width="60" height="40" as="geometry" />
        </mxCell>
        <mxCell id="-szrvnAvTn_Sn9t5M3lu-132" style="edgeStyle=orthogonalEdgeStyle;rounded=0;orthogonalLoop=1;jettySize=auto;html=1;exitX=1;exitY=0.5;exitDx=0;exitDy=0;entryX=0;entryY=0.5;entryDx=0;entryDy=0;endArrow=none;startFill=0;" edge="1" parent="1" source="-szrvnAvTn_Sn9t5M3lu-134">
          <mxGeometry relative="1" as="geometry">
            <mxPoint x="1180" y="510" as="targetPoint" />
          </mxGeometry>
        </mxCell>
        <mxCell id="-szrvnAvTn_Sn9t5M3lu-133" value="" style="edgeStyle=orthogonalEdgeStyle;rounded=0;orthogonalLoop=1;jettySize=auto;html=1;endArrow=none;startFill=0;" edge="1" parent="1" source="-szrvnAvTn_Sn9t5M3lu-134" target="-szrvnAvTn_Sn9t5M3lu-43">
          <mxGeometry relative="1" as="geometry" />
        </mxCell>
        <mxCell id="-szrvnAvTn_Sn9t5M3lu-134" value="Work In" style="shape=rhombus;perimeter=rhombusPerimeter;whiteSpace=wrap;html=1;align=center;fillColor=light-dark(#FFFFFF,#FFFFFF);strokeColor=light-dark(#000000,#000000);fillStyle=solid;fontColor=light-dark(#000000,#000000);perimeterSpacing=1;gradientColor=none;" vertex="1" parent="1">
          <mxGeometry x="991" y="480" width="120" height="60" as="geometry" />
        </mxCell>
        <mxCell id="-szrvnAvTn_Sn9t5M3lu-135" style="edgeStyle=orthogonalEdgeStyle;rounded=0;orthogonalLoop=1;jettySize=auto;html=1;entryX=0;entryY=0.5;entryDx=0;entryDy=0;endArrow=none;startFill=0;exitX=1;exitY=0.25;exitDx=0;exitDy=0;" edge="1" parent="1" source="-szrvnAvTn_Sn9t5M3lu-138" target="-szrvnAvTn_Sn9t5M3lu-147">
          <mxGeometry relative="1" as="geometry">
            <mxPoint x="1261" y="500" as="sourcePoint" />
          </mxGeometry>
        </mxCell>
        <mxCell id="-szrvnAvTn_Sn9t5M3lu-136" style="edgeStyle=orthogonalEdgeStyle;rounded=0;orthogonalLoop=1;jettySize=auto;html=1;exitX=0.75;exitY=1;exitDx=0;exitDy=0;entryX=0.5;entryY=0;entryDx=0;entryDy=0;endArrow=none;startFill=0;" edge="1" parent="1" source="-szrvnAvTn_Sn9t5M3lu-138" target="-szrvnAvTn_Sn9t5M3lu-180">
          <mxGeometry relative="1" as="geometry" />
        </mxCell>
        <mxCell id="-szrvnAvTn_Sn9t5M3lu-137" style="edgeStyle=orthogonalEdgeStyle;rounded=0;orthogonalLoop=1;jettySize=auto;html=1;exitX=1;exitY=0.75;exitDx=0;exitDy=0;entryX=0.5;entryY=0;entryDx=0;entryDy=0;endArrow=none;startFill=0;" edge="1" parent="1" source="-szrvnAvTn_Sn9t5M3lu-138" target="-szrvnAvTn_Sn9t5M3lu-178">
          <mxGeometry relative="1" as="geometry" />
        </mxCell>
        <mxCell id="-szrvnAvTn_Sn9t5M3lu-138" value="&lt;span style=&quot;text-wrap-mode: nowrap;&quot;&gt;Providers&lt;/span&gt;" style="whiteSpace=wrap;html=1;align=center;perimeterSpacing=1;rounded=0;strokeWidth=1;strokeColor=light-dark(#000000,#000000);fillStyle=solid;gradientColor=none;fillColor=light-dark(#FFFFFF,#FFFFFF);perimeter=rectanglePerimeter;fixDash=0;" vertex="1" parent="1">
          <mxGeometry x="1180" y="490" width="80" height="40" as="geometry" />
        </mxCell>
        <mxCell id="-szrvnAvTn_Sn9t5M3lu-139" value="&lt;span style=&quot;color: rgb(0, 0, 0); font-family: Helvetica; font-size: 11px; font-style: normal; font-variant-ligatures: normal; font-variant-caps: normal; font-weight: 400; letter-spacing: normal; orphans: 2; text-align: center; text-indent: 0px; text-transform: none; widows: 2; word-spacing: 0px; -webkit-text-stroke-width: 0px; white-space: nowrap; background-color: rgb(255, 255, 255); text-decoration-thickness: initial; text-decoration-style: initial; text-decoration-color: initial; float: none; display: inline !important;&quot;&gt;(1,N)&lt;/span&gt;" style="text;whiteSpace=wrap;html=1;" vertex="1" parent="1">
          <mxGeometry x="931" y="485" width="60" height="40" as="geometry" />
        </mxCell>
        <mxCell id="-szrvnAvTn_Sn9t5M3lu-140" value="&lt;span style=&quot;color: rgb(0, 0, 0); font-family: Helvetica; font-size: 11px; font-style: normal; font-variant-ligatures: normal; font-variant-caps: normal; font-weight: 400; letter-spacing: normal; orphans: 2; text-align: center; text-indent: 0px; text-transform: none; widows: 2; word-spacing: 0px; -webkit-text-stroke-width: 0px; white-space: nowrap; background-color: rgb(255, 255, 255); text-decoration-thickness: initial; text-decoration-style: initial; text-decoration-color: initial; display: inline !important; float: none;&quot;&gt;(1,1)&lt;/span&gt;" style="text;whiteSpace=wrap;html=1;" vertex="1" parent="1">
          <mxGeometry x="1125" y="485" width="60" height="40" as="geometry" />
        </mxCell>
        <mxCell id="-szrvnAvTn_Sn9t5M3lu-141" value="" style="edgeStyle=orthogonalEdgeStyle;rounded=0;orthogonalLoop=1;jettySize=auto;html=1;entryX=0.5;entryY=1;entryDx=0;entryDy=0;endArrow=none;startFill=0;" edge="1" parent="1" source="-szrvnAvTn_Sn9t5M3lu-143" target="-szrvnAvTn_Sn9t5M3lu-138">
          <mxGeometry relative="1" as="geometry">
            <mxPoint x="1220" y="540" as="targetPoint" />
          </mxGeometry>
        </mxCell>
        <mxCell id="-szrvnAvTn_Sn9t5M3lu-142" value="" style="edgeStyle=orthogonalEdgeStyle;rounded=0;orthogonalLoop=1;jettySize=auto;html=1;endArrow=none;startFill=0;" edge="1" parent="1" source="-szrvnAvTn_Sn9t5M3lu-143" target="-szrvnAvTn_Sn9t5M3lu-144">
          <mxGeometry relative="1" as="geometry" />
        </mxCell>
        <mxCell id="-szrvnAvTn_Sn9t5M3lu-143" value="Specilized in" style="shape=rhombus;perimeter=rhombusPerimeter;whiteSpace=wrap;html=1;align=center;fillColor=light-dark(#FFFFFF,#FFFFFF);strokeColor=light-dark(#000000,#000000);fillStyle=solid;fontColor=light-dark(#000000,#000000);perimeterSpacing=1;gradientColor=none;" vertex="1" parent="1">
          <mxGeometry x="1160" y="600" width="120" height="60" as="geometry" />
        </mxCell>
        <mxCell id="-szrvnAvTn_Sn9t5M3lu-144" value="&lt;span style=&quot;text-wrap-mode: nowrap;&quot;&gt;Speciality&lt;/span&gt;" style="whiteSpace=wrap;html=1;align=center;perimeterSpacing=1;rounded=0;strokeWidth=1;strokeColor=light-dark(#000000,#000000);fillStyle=solid;gradientColor=none;fillColor=light-dark(#FFFFFF,#FFFFFF);perimeter=rectanglePerimeter;fixDash=0;" vertex="1" parent="1">
          <mxGeometry x="1180" y="730" width="80" height="40" as="geometry" />
        </mxCell>
        <mxCell id="-szrvnAvTn_Sn9t5M3lu-145" value="(1,N)" style="edgeLabel;html=1;align=center;verticalAlign=middle;resizable=0;points=[];fontColor=light-dark(#000000,#000000);labelBackgroundColor=light-dark(#FFFFFF,#FFFFFF);" vertex="1" connectable="0" parent="1">
          <mxGeometry x="1241" y="575" as="geometry">
            <mxPoint x="-36" y="-3" as="offset" />
          </mxGeometry>
        </mxCell>
        <mxCell id="-szrvnAvTn_Sn9t5M3lu-146" value="(1,N)" style="edgeLabel;html=1;align=center;verticalAlign=middle;resizable=0;points=[];fontColor=light-dark(#000000,#000000);labelBackgroundColor=light-dark(#FFFFFF,#FFFFFF);" vertex="1" connectable="0" parent="1">
          <mxGeometry x="1230" y="650" as="geometry">
            <mxPoint x="19" y="39" as="offset" />
          </mxGeometry>
        </mxCell>
        <mxCell id="-szrvnAvTn_Sn9t5M3lu-147" value="Conduct" style="shape=rhombus;perimeter=rhombusPerimeter;whiteSpace=wrap;html=1;align=center;fillColor=light-dark(#FFFFFF,#FFFFFF);strokeColor=light-dark(#000000,#000000);fillStyle=solid;fontColor=light-dark(#000000,#000000);perimeterSpacing=1;gradientColor=none;" vertex="1" parent="1">
          <mxGeometry x="1490" y="470" width="120" height="60" as="geometry" />
        </mxCell>
        <mxCell id="-szrvnAvTn_Sn9t5M3lu-148" style="edgeStyle=orthogonalEdgeStyle;rounded=0;orthogonalLoop=1;jettySize=auto;html=1;exitX=1;exitY=0.5;exitDx=0;exitDy=0;endArrow=none;startFill=0;entryX=0.046;entryY=0.983;entryDx=0;entryDy=0;entryPerimeter=0;" edge="1" parent="1" source="-szrvnAvTn_Sn9t5M3lu-147" target="-szrvnAvTn_Sn9t5M3lu-53">
          <mxGeometry relative="1" as="geometry">
            <mxPoint x="1740" y="360" as="targetPoint" />
          </mxGeometry>
        </mxCell>
        <mxCell id="-szrvnAvTn_Sn9t5M3lu-149" value="&lt;span style=&quot;color: rgb(0, 0, 0); font-family: Helvetica; font-size: 11px; font-style: normal; font-variant-ligatures: normal; font-variant-caps: normal; font-weight: 400; letter-spacing: normal; orphans: 2; text-align: center; text-indent: 0px; text-transform: none; widows: 2; word-spacing: 0px; -webkit-text-stroke-width: 0px; white-space: nowrap; background-color: rgb(255, 255, 255); text-decoration-thickness: initial; text-decoration-style: initial; text-decoration-color: initial; display: inline !important; float: none;&quot;&gt;(1,N)&lt;/span&gt;" style="text;whiteSpace=wrap;html=1;" vertex="1" parent="1">
          <mxGeometry x="1360" y="470" width="60" height="40" as="geometry" />
        </mxCell>
        <mxCell id="-szrvnAvTn_Sn9t5M3lu-150" value="(1,1)" style="edgeLabel;html=1;align=center;verticalAlign=middle;resizable=0;points=[];fontColor=light-dark(#000000,#000000);labelBackgroundColor=light-dark(#FFFFFF,#FFFFFF);" vertex="1" connectable="0" parent="1">
          <mxGeometry x="1470.0039393939396" y="430" as="geometry">
            <mxPoint x="168" y="59" as="offset" />
          </mxGeometry>
        </mxCell>
        <mxCell id="-szrvnAvTn_Sn9t5M3lu-151" value="Is" style="shape=rhombus;perimeter=rhombusPerimeter;whiteSpace=wrap;html=1;align=center;fillColor=light-dark(#FFFFFF,#FFFFFF);strokeColor=light-dark(#000000,#000000);fillStyle=solid;fontColor=light-dark(#000000,#000000);perimeterSpacing=1;gradientColor=none;" vertex="1" parent="1">
          <mxGeometry x="2289.9999999999995" y="210" width="120" height="60" as="geometry" />
        </mxCell>
        <mxCell id="-szrvnAvTn_Sn9t5M3lu-152" value="(1,1)" style="edgeLabel;html=1;align=center;verticalAlign=middle;resizable=0;points=[];fontColor=light-dark(#000000,#000000);labelBackgroundColor=light-dark(#FFFFFF,#FFFFFF);" vertex="1" connectable="0" parent="1">
          <mxGeometry x="2280.00075191077" y="230.00280010504412" as="geometry">
            <mxPoint x="-28" y="-4" as="offset" />
          </mxGeometry>
        </mxCell>
        <mxCell id="-szrvnAvTn_Sn9t5M3lu-153" value="&lt;font&gt;Device_Type&lt;/font&gt;" style="whiteSpace=wrap;html=1;align=center;perimeterSpacing=1;rounded=0;strokeWidth=1;strokeColor=light-dark(#000000,#000000);fillStyle=solid;gradientColor=none;fillColor=light-dark(#FFFFFF,#FFFFFF);perimeter=rectanglePerimeter;fixDash=0;fontColor=light-dark(#000000,#000000);" vertex="1" parent="1">
          <mxGeometry x="2481" y="220" width="100" height="40" as="geometry" />
        </mxCell>
        <mxCell id="-szrvnAvTn_Sn9t5M3lu-154" value="" style="endArrow=none;html=1;rounded=0;exitX=0;exitY=0.5;exitDx=0;exitDy=0;entryX=1;entryY=0.5;entryDx=0;entryDy=0;strokeColor=light-dark(#000000,#000000);" edge="1" parent="1" source="-szrvnAvTn_Sn9t5M3lu-153" target="-szrvnAvTn_Sn9t5M3lu-151">
          <mxGeometry relative="1" as="geometry">
            <mxPoint x="2179.0299999999997" y="250" as="sourcePoint" />
            <mxPoint x="2145.0299999999997" y="309" as="targetPoint" />
            <Array as="points" />
          </mxGeometry>
        </mxCell>
        <mxCell id="-szrvnAvTn_Sn9t5M3lu-155" value="(1,N)" style="edgeLabel;html=1;align=center;verticalAlign=middle;resizable=0;points=[];fontColor=light-dark(#000000,#000000);labelBackgroundColor=light-dark(#FFFFFF,#FFFFFF);" vertex="1" connectable="0" parent="-szrvnAvTn_Sn9t5M3lu-154">
          <mxGeometry x="-0.1179" y="-2" relative="1" as="geometry">
            <mxPoint x="2" y="-8" as="offset" />
          </mxGeometry>
        </mxCell>
        <mxCell id="-szrvnAvTn_Sn9t5M3lu-156" value="M" style="resizable=0;html=1;whiteSpace=wrap;align=left;verticalAlign=bottom;" connectable="0" vertex="1" parent="1">
          <mxGeometry x="2071.0299999999997" y="240" as="geometry" />
        </mxCell>
        <mxCell id="-szrvnAvTn_Sn9t5M3lu-157" style="edgeStyle=orthogonalEdgeStyle;rounded=0;orthogonalLoop=1;jettySize=auto;html=1;exitX=0;exitY=0.5;exitDx=0;exitDy=0;entryX=1;entryY=0.25;entryDx=0;entryDy=0;endArrow=none;startFill=0;" edge="1" parent="1" source="-szrvnAvTn_Sn9t5M3lu-158" target="-szrvnAvTn_Sn9t5M3lu-53">
          <mxGeometry relative="1" as="geometry" />
        </mxCell>
        <mxCell id="-szrvnAvTn_Sn9t5M3lu-158" value="Adopt" style="shape=rhombus;perimeter=rhombusPerimeter;whiteSpace=wrap;html=1;align=center;fillColor=light-dark(#FFFFFF,#FFFFFF);strokeColor=light-dark(#000000,#000000);fillStyle=solid;fontColor=light-dark(#000000,#000000);perimeterSpacing=1;gradientColor=none;" vertex="1" parent="1">
          <mxGeometry x="1930.03" y="210" width="120" height="60" as="geometry" />
        </mxCell>
        <mxCell id="-szrvnAvTn_Sn9t5M3lu-159" value="(1,N)" style="edgeLabel;html=1;align=center;verticalAlign=middle;resizable=0;points=[];fontColor=light-dark(#000000,#000000);labelBackgroundColor=light-dark(#FFFFFF,#FFFFFF);" vertex="1" connectable="0" parent="1">
          <mxGeometry x="1910.0007519107698" y="230.00280010504412" as="geometry">
            <mxPoint x="-28" y="-4" as="offset" />
          </mxGeometry>
        </mxCell>
        <mxCell id="-szrvnAvTn_Sn9t5M3lu-160" style="edgeStyle=orthogonalEdgeStyle;rounded=0;orthogonalLoop=1;jettySize=auto;html=1;entryX=0;entryY=0.5;entryDx=0;entryDy=0;endArrow=none;startFill=0;" edge="1" parent="1" source="-szrvnAvTn_Sn9t5M3lu-161" target="-szrvnAvTn_Sn9t5M3lu-151">
          <mxGeometry relative="1" as="geometry" />
        </mxCell>
        <mxCell id="-szrvnAvTn_Sn9t5M3lu-161" value="Device" style="whiteSpace=wrap;html=1;align=center;perimeterSpacing=1;rounded=0;strokeWidth=1;strokeColor=light-dark(#000000,#000000);fillStyle=solid;gradientColor=none;fillColor=light-dark(#FFFFFF,#FFFFFF);perimeter=rectanglePerimeter;fixDash=0;fontColor=light-dark(#000000,#000000);" vertex="1" parent="1">
          <mxGeometry x="2100.03" y="220" width="100" height="40" as="geometry" />
        </mxCell>
        <mxCell id="-szrvnAvTn_Sn9t5M3lu-162" value="" style="endArrow=none;html=1;rounded=0;exitX=0;exitY=0.5;exitDx=0;exitDy=0;entryX=1;entryY=0.5;entryDx=0;entryDy=0;strokeColor=light-dark(#000000,#000000);" edge="1" parent="1" source="-szrvnAvTn_Sn9t5M3lu-161" target="-szrvnAvTn_Sn9t5M3lu-158">
          <mxGeometry relative="1" as="geometry">
            <mxPoint x="1939.03" y="250" as="sourcePoint" />
            <mxPoint x="1905.03" y="309" as="targetPoint" />
            <Array as="points" />
          </mxGeometry>
        </mxCell>
        <mxCell id="-szrvnAvTn_Sn9t5M3lu-163" value="(1,N)" style="edgeLabel;html=1;align=center;verticalAlign=middle;resizable=0;points=[];fontColor=light-dark(#000000,#000000);labelBackgroundColor=light-dark(#FFFFFF,#FFFFFF);" vertex="1" connectable="0" parent="-szrvnAvTn_Sn9t5M3lu-162">
          <mxGeometry x="-0.1179" y="-2" relative="1" as="geometry">
            <mxPoint x="2" y="-8" as="offset" />
          </mxGeometry>
        </mxCell>
        <mxCell id="-szrvnAvTn_Sn9t5M3lu-164" value="Careplans" style="whiteSpace=wrap;html=1;align=center;perimeterSpacing=1;rounded=0;strokeWidth=1;strokeColor=light-dark(#000000,#000000);fillStyle=solid;gradientColor=none;fillColor=light-dark(#FFFFFF,#FFFFFF);perimeter=rectanglePerimeter;fixDash=0;" vertex="1" parent="1">
          <mxGeometry x="2210" y="-160" width="100" height="40" as="geometry" />
        </mxCell>
        <mxCell id="-szrvnAvTn_Sn9t5M3lu-165" value="" style="edgeStyle=orthogonalEdgeStyle;rounded=0;orthogonalLoop=1;jettySize=auto;html=1;endArrow=none;startFill=0;" edge="1" parent="1" source="-szrvnAvTn_Sn9t5M3lu-166" target="-szrvnAvTn_Sn9t5M3lu-164">
          <mxGeometry relative="1" as="geometry" />
        </mxCell>
        <mxCell id="-szrvnAvTn_Sn9t5M3lu-166" value="Plan" style="shape=rhombus;perimeter=rhombusPerimeter;whiteSpace=wrap;html=1;align=center;fillColor=light-dark(#FFFFFF,#FFFFFF);strokeColor=light-dark(#000000,#000000);fillStyle=solid;fontColor=light-dark(#000000,#000000);perimeterSpacing=1;gradientColor=none;" vertex="1" parent="1">
          <mxGeometry x="2200" y="-50" width="120" height="60" as="geometry" />
        </mxCell>
        <mxCell id="-szrvnAvTn_Sn9t5M3lu-167" style="edgeStyle=orthogonalEdgeStyle;rounded=0;orthogonalLoop=1;jettySize=auto;html=1;endArrow=none;startFill=0;" edge="1" parent="1" source="-szrvnAvTn_Sn9t5M3lu-166">
          <mxGeometry relative="1" as="geometry">
            <mxPoint x="1810" y="300" as="targetPoint" />
            <Array as="points">
              <mxPoint x="1810" y="-20" />
              <mxPoint x="1810" y="300" />
            </Array>
          </mxGeometry>
        </mxCell>
        <mxCell id="-szrvnAvTn_Sn9t5M3lu-168" value="&lt;span style=&quot;color: rgb(0, 0, 0); font-family: Helvetica; font-size: 11px; font-style: normal; font-variant-ligatures: normal; font-variant-caps: normal; font-weight: 400; letter-spacing: normal; orphans: 2; text-align: center; text-indent: 0px; text-transform: none; widows: 2; word-spacing: 0px; -webkit-text-stroke-width: 0px; white-space: nowrap; background-color: rgb(255, 255, 255); text-decoration-thickness: initial; text-decoration-style: initial; text-decoration-color: initial; display: inline !important; float: none;&quot;&gt;(1,N)&lt;/span&gt;" style="text;whiteSpace=wrap;html=1;" vertex="1" parent="1">
          <mxGeometry x="2160.54" y="-20" width="60" height="40" as="geometry" />
        </mxCell>
        <mxCell id="-szrvnAvTn_Sn9t5M3lu-169" value="&lt;span style=&quot;color: rgb(0, 0, 0); font-family: Helvetica; font-size: 11px; font-style: normal; font-variant-ligatures: normal; font-variant-caps: normal; font-weight: 400; letter-spacing: normal; orphans: 2; text-align: center; text-indent: 0px; text-transform: none; widows: 2; word-spacing: 0px; -webkit-text-stroke-width: 0px; white-space: nowrap; background-color: rgb(255, 255, 255); text-decoration-thickness: initial; text-decoration-style: initial; text-decoration-color: initial; display: inline !important; float: none;&quot;&gt;(1,N)&lt;/span&gt;" style="text;whiteSpace=wrap;html=1;" vertex="1" parent="1">
          <mxGeometry x="2270" y="-100" width="60" height="40" as="geometry" />
        </mxCell>
        <mxCell id="-szrvnAvTn_Sn9t5M3lu-170" style="edgeStyle=orthogonalEdgeStyle;rounded=0;orthogonalLoop=1;jettySize=auto;html=1;exitX=1;exitY=0.5;exitDx=0;exitDy=0;entryX=0;entryY=0.5;entryDx=0;entryDy=0;endArrow=none;startFill=0;" edge="1" parent="1" source="-szrvnAvTn_Sn9t5M3lu-171" target="-szrvnAvTn_Sn9t5M3lu-173">
          <mxGeometry relative="1" as="geometry" />
        </mxCell>
        <mxCell id="-szrvnAvTn_Sn9t5M3lu-171" value="&lt;span style=&quot;text-wrap-mode: nowrap;&quot;&gt;Claims_Transaction&lt;/span&gt;" style="whiteSpace=wrap;html=1;align=center;perimeterSpacing=1;rounded=0;strokeWidth=1;strokeColor=light-dark(#000000,#000000);fillStyle=solid;gradientColor=none;fillColor=light-dark(#FFFFFF,#FFFFFF);perimeter=rectanglePerimeter;fixDash=0;" vertex="1" parent="1">
          <mxGeometry x="890" y="860" width="160" height="40" as="geometry" />
        </mxCell>
        <mxCell id="-szrvnAvTn_Sn9t5M3lu-172" value="" style="edgeStyle=orthogonalEdgeStyle;rounded=0;orthogonalLoop=1;jettySize=auto;html=1;endArrow=none;startFill=0;" edge="1" parent="1" source="-szrvnAvTn_Sn9t5M3lu-173" target="-szrvnAvTn_Sn9t5M3lu-176">
          <mxGeometry relative="1" as="geometry" />
        </mxCell>
        <mxCell id="-szrvnAvTn_Sn9t5M3lu-173" value="Make" style="shape=rhombus;perimeter=rhombusPerimeter;whiteSpace=wrap;html=1;align=center;fillColor=light-dark(#FFFFFF,#FFFFFF);strokeColor=light-dark(#000000,#000000);fillStyle=solid;fontColor=light-dark(#000000,#000000);perimeterSpacing=1;gradientColor=none;" vertex="1" parent="1">
          <mxGeometry x="1181" y="850" width="120" height="60" as="geometry" />
        </mxCell>
        <mxCell id="-szrvnAvTn_Sn9t5M3lu-174" value="&lt;span style=&quot;color: rgb(0, 0, 0); font-family: Helvetica; font-size: 11px; font-style: normal; font-variant-ligatures: normal; font-variant-caps: normal; font-weight: 400; letter-spacing: normal; orphans: 2; text-align: center; text-indent: 0px; text-transform: none; widows: 2; word-spacing: 0px; -webkit-text-stroke-width: 0px; white-space: nowrap; background-color: rgb(255, 255, 255); text-decoration-thickness: initial; text-decoration-style: initial; text-decoration-color: initial; display: inline !important; float: none;&quot;&gt;(1,N)&lt;/span&gt;" style="text;whiteSpace=wrap;html=1;" vertex="1" parent="1">
          <mxGeometry x="1090" y="860" width="60" height="40" as="geometry" />
        </mxCell>
        <mxCell id="-szrvnAvTn_Sn9t5M3lu-175" value="" style="edgeStyle=orthogonalEdgeStyle;rounded=0;orthogonalLoop=1;jettySize=auto;html=1;endArrow=none;startFill=0;" edge="1" parent="1" source="-szrvnAvTn_Sn9t5M3lu-176" target="-szrvnAvTn_Sn9t5M3lu-186">
          <mxGeometry relative="1" as="geometry" />
        </mxCell>
        <mxCell id="-szrvnAvTn_Sn9t5M3lu-176" value="&lt;span style=&quot;text-wrap-mode: nowrap;&quot;&gt;Claim&lt;/span&gt;" style="whiteSpace=wrap;html=1;align=center;perimeterSpacing=1;rounded=0;strokeWidth=1;strokeColor=light-dark(#000000,#000000);fillStyle=solid;gradientColor=none;fillColor=light-dark(#FFFFFF,#FFFFFF);perimeter=rectanglePerimeter;fixDash=0;" vertex="1" parent="1">
          <mxGeometry x="1400" y="860" width="80" height="40" as="geometry" />
        </mxCell>
        <mxCell id="-szrvnAvTn_Sn9t5M3lu-177" style="edgeStyle=orthogonalEdgeStyle;rounded=0;orthogonalLoop=1;jettySize=auto;html=1;entryX=0.75;entryY=0;entryDx=0;entryDy=0;endArrow=none;startFill=0;" edge="1" parent="1" source="-szrvnAvTn_Sn9t5M3lu-178" target="-szrvnAvTn_Sn9t5M3lu-176">
          <mxGeometry relative="1" as="geometry" />
        </mxCell>
        <mxCell id="-szrvnAvTn_Sn9t5M3lu-178" value="Supervise" style="shape=rhombus;perimeter=rhombusPerimeter;whiteSpace=wrap;html=1;align=center;fillColor=light-dark(#FFFFFF,#FFFFFF);strokeColor=light-dark(#000000,#000000);fillStyle=solid;fontColor=light-dark(#000000,#000000);perimeterSpacing=1;gradientColor=none;" vertex="1" parent="1">
          <mxGeometry x="1440" y="600" width="120" height="60" as="geometry" />
        </mxCell>
        <mxCell id="-szrvnAvTn_Sn9t5M3lu-179" style="edgeStyle=orthogonalEdgeStyle;rounded=0;orthogonalLoop=1;jettySize=auto;html=1;exitX=0.5;exitY=1;exitDx=0;exitDy=0;entryX=0.25;entryY=0;entryDx=0;entryDy=0;endArrow=none;startFill=0;" edge="1" parent="1" source="-szrvnAvTn_Sn9t5M3lu-180" target="-szrvnAvTn_Sn9t5M3lu-176">
          <mxGeometry relative="1" as="geometry" />
        </mxCell>
        <mxCell id="-szrvnAvTn_Sn9t5M3lu-180" value="Carry out" style="shape=rhombus;perimeter=rhombusPerimeter;whiteSpace=wrap;html=1;align=center;fillColor=light-dark(#FFFFFF,#FFFFFF);strokeColor=light-dark(#000000,#000000);fillStyle=solid;fontColor=light-dark(#000000,#000000);perimeterSpacing=1;gradientColor=none;" vertex="1" parent="1">
          <mxGeometry x="1290" y="600" width="120" height="60" as="geometry" />
        </mxCell>
        <mxCell id="-szrvnAvTn_Sn9t5M3lu-181" value="&lt;span style=&quot;color: rgb(0, 0, 0); font-family: Helvetica; font-size: 11px; font-style: normal; font-variant-ligatures: normal; font-variant-caps: normal; font-weight: 400; letter-spacing: normal; orphans: 2; text-align: center; text-indent: 0px; text-transform: none; widows: 2; word-spacing: 0px; -webkit-text-stroke-width: 0px; white-space: nowrap; background-color: rgb(255, 255, 255); text-decoration-thickness: initial; text-decoration-style: initial; text-decoration-color: initial; display: inline !important; float: none;&quot;&gt;(1,N)&lt;/span&gt;" style="text;whiteSpace=wrap;html=1;" vertex="1" parent="1">
          <mxGeometry x="1350" y="565" width="60" height="40" as="geometry" />
        </mxCell>
        <mxCell id="-szrvnAvTn_Sn9t5M3lu-182" value="&lt;span style=&quot;color: rgb(0, 0, 0); font-family: Helvetica; font-size: 11px; font-style: normal; font-variant-ligatures: normal; font-variant-caps: normal; font-weight: 400; letter-spacing: normal; orphans: 2; text-align: center; text-indent: 0px; text-transform: none; widows: 2; word-spacing: 0px; -webkit-text-stroke-width: 0px; white-space: nowrap; background-color: rgb(255, 255, 255); text-decoration-thickness: initial; text-decoration-style: initial; text-decoration-color: initial; display: inline !important; float: none;&quot;&gt;(1,N)&lt;/span&gt;" style="text;whiteSpace=wrap;html=1;" vertex="1" parent="1">
          <mxGeometry x="1500" y="565" width="60" height="40" as="geometry" />
        </mxCell>
        <mxCell id="-szrvnAvTn_Sn9t5M3lu-183" value="&lt;span style=&quot;color: rgb(0, 0, 0); font-family: Helvetica; font-size: 11px; font-style: normal; font-variant-ligatures: normal; font-variant-caps: normal; font-weight: 400; letter-spacing: normal; orphans: 2; text-align: center; text-indent: 0px; text-transform: none; widows: 2; word-spacing: 0px; -webkit-text-stroke-width: 0px; white-space: nowrap; background-color: rgb(255, 255, 255); text-decoration-thickness: initial; text-decoration-style: initial; text-decoration-color: initial; display: inline !important; float: none;&quot;&gt;(1,1)&lt;/span&gt;" style="text;whiteSpace=wrap;html=1;" vertex="1" parent="1">
          <mxGeometry x="1500" y="670" width="60" height="40" as="geometry" />
        </mxCell>
        <mxCell id="-szrvnAvTn_Sn9t5M3lu-184" value="&lt;span style=&quot;color: rgb(0, 0, 0); font-family: Helvetica; font-size: 11px; font-style: normal; font-variant-ligatures: normal; font-variant-caps: normal; font-weight: 400; letter-spacing: normal; orphans: 2; text-align: center; text-indent: 0px; text-transform: none; widows: 2; word-spacing: 0px; -webkit-text-stroke-width: 0px; white-space: nowrap; background-color: rgb(255, 255, 255); text-decoration-thickness: initial; text-decoration-style: initial; text-decoration-color: initial; display: inline !important; float: none;&quot;&gt;(1,1)&lt;/span&gt;" style="text;whiteSpace=wrap;html=1;" vertex="1" parent="1">
          <mxGeometry x="1350" y="670" width="60" height="40" as="geometry" />
        </mxCell>
        <mxCell id="-szrvnAvTn_Sn9t5M3lu-185" style="edgeStyle=orthogonalEdgeStyle;rounded=0;orthogonalLoop=1;jettySize=auto;html=1;entryX=0.142;entryY=1.008;entryDx=0;entryDy=0;entryPerimeter=0;endArrow=none;startFill=0;" edge="1" parent="1" source="-szrvnAvTn_Sn9t5M3lu-186" target="-szrvnAvTn_Sn9t5M3lu-53">
          <mxGeometry relative="1" as="geometry">
            <mxPoint x="1740" y="370" as="targetPoint" />
          </mxGeometry>
        </mxCell>
        <mxCell id="-szrvnAvTn_Sn9t5M3lu-186" value="Supervise" style="shape=rhombus;perimeter=rhombusPerimeter;whiteSpace=wrap;html=1;align=center;fillColor=light-dark(#FFFFFF,#FFFFFF);strokeColor=light-dark(#000000,#000000);fillStyle=solid;fontColor=light-dark(#000000,#000000);perimeterSpacing=1;gradientColor=none;" vertex="1" parent="1">
          <mxGeometry x="1560" y="850" width="120" height="60" as="geometry" />
        </mxCell>
        <mxCell id="-szrvnAvTn_Sn9t5M3lu-187" value="&lt;span style=&quot;color: rgb(0, 0, 0); font-family: Helvetica; font-size: 11px; font-style: normal; font-variant-ligatures: normal; font-variant-caps: normal; font-weight: 400; letter-spacing: normal; orphans: 2; text-align: center; text-indent: 0px; text-transform: none; widows: 2; word-spacing: 0px; -webkit-text-stroke-width: 0px; white-space: nowrap; background-color: rgb(255, 255, 255); text-decoration-thickness: initial; text-decoration-style: initial; text-decoration-color: initial; display: inline !important; float: none;&quot;&gt;(1,N)&lt;/span&gt;" style="text;whiteSpace=wrap;html=1;" vertex="1" parent="1">
          <mxGeometry x="1500" y="850" width="60" height="40" as="geometry" />
        </mxCell>
        <mxCell id="-szrvnAvTn_Sn9t5M3lu-188" value="&lt;span style=&quot;color: rgb(0, 0, 0); font-family: Helvetica; font-size: 11px; font-style: normal; font-variant-ligatures: normal; font-variant-caps: normal; font-weight: 400; letter-spacing: normal; orphans: 2; text-align: center; text-indent: 0px; text-transform: none; widows: 2; word-spacing: 0px; -webkit-text-stroke-width: 0px; white-space: nowrap; background-color: rgb(255, 255, 255); text-decoration-thickness: initial; text-decoration-style: initial; text-decoration-color: initial; display: inline !important; float: none;&quot;&gt;(1,N)&lt;/span&gt;" style="text;whiteSpace=wrap;html=1;" vertex="1" parent="1">
          <mxGeometry x="1700" y="850" width="20" height="40" as="geometry" />
        </mxCell>
        <mxCell id="-szrvnAvTn_Sn9t5M3lu-189" style="edgeStyle=orthogonalEdgeStyle;rounded=0;orthogonalLoop=1;jettySize=auto;html=1;exitX=0.5;exitY=1;exitDx=0;exitDy=0;entryX=0.5;entryY=0;entryDx=0;entryDy=0;endArrow=none;startFill=0;" edge="1" parent="1" source="-szrvnAvTn_Sn9t5M3lu-190" target="-szrvnAvTn_Sn9t5M3lu-201">
          <mxGeometry relative="1" as="geometry" />
        </mxCell>
        <mxCell id="-szrvnAvTn_Sn9t5M3lu-190" value="Calculate" style="shape=rhombus;perimeter=rhombusPerimeter;whiteSpace=wrap;html=1;align=center;fillColor=light-dark(#FFFFFF,#FFFFFF);strokeColor=light-dark(#000000,#000000);fillStyle=solid;fontColor=light-dark(#000000,#000000);perimeterSpacing=1;gradientColor=none;" vertex="1" parent="1">
          <mxGeometry x="2320.4" y="670" width="120" height="60" as="geometry" />
        </mxCell>
        <mxCell id="-szrvnAvTn_Sn9t5M3lu-191" value="" style="endArrow=none;html=1;rounded=0;strokeColor=light-dark(#000000,#000000);exitX=0;exitY=0.5;exitDx=0;exitDy=0;" edge="1" parent="1" source="-szrvnAvTn_Sn9t5M3lu-195" target="-szrvnAvTn_Sn9t5M3lu-190">
          <mxGeometry relative="1" as="geometry">
            <mxPoint x="2540.3999999999996" y="700" as="sourcePoint" />
            <mxPoint x="2578.3999999999996" y="699.5" as="targetPoint" />
          </mxGeometry>
        </mxCell>
        <mxCell id="-szrvnAvTn_Sn9t5M3lu-192" value="M" style="resizable=0;html=1;whiteSpace=wrap;align=left;verticalAlign=bottom;" connectable="0" vertex="1" parent="-szrvnAvTn_Sn9t5M3lu-191">
          <mxGeometry x="-1" relative="1" as="geometry" />
        </mxCell>
        <mxCell id="-szrvnAvTn_Sn9t5M3lu-193" value="(1,N)" style="edgeLabel;html=1;align=center;verticalAlign=middle;resizable=0;points=[];fontColor=light-dark(#000000,#000000);labelBackgroundColor=light-dark(#FFFFFF,#FFFFFF);" vertex="1" connectable="0" parent="-szrvnAvTn_Sn9t5M3lu-191">
          <mxGeometry x="-0.1179" y="-2" relative="1" as="geometry">
            <mxPoint x="-16" y="-8" as="offset" />
          </mxGeometry>
        </mxCell>
        <mxCell id="-szrvnAvTn_Sn9t5M3lu-194" value="" style="edgeStyle=orthogonalEdgeStyle;rounded=0;orthogonalLoop=1;jettySize=auto;html=1;endArrow=none;startFill=0;" edge="1" parent="1" source="-szrvnAvTn_Sn9t5M3lu-195" target="-szrvnAvTn_Sn9t5M3lu-190">
          <mxGeometry relative="1" as="geometry" />
        </mxCell>
        <mxCell id="-szrvnAvTn_Sn9t5M3lu-195" value="&lt;span style=&quot;text-wrap-mode: nowrap;&quot;&gt;Unit&lt;/span&gt;" style="whiteSpace=wrap;html=1;align=center;perimeterSpacing=1;rounded=0;strokeWidth=1;strokeColor=light-dark(#000000,#000000);fillStyle=solid;gradientColor=none;fillColor=light-dark(#FFFFFF,#FFFFFF);perimeter=rectanglePerimeter;fixDash=0;" vertex="1" parent="1">
          <mxGeometry x="2500.4" y="680" width="100" height="40" as="geometry" />
        </mxCell>
        <mxCell id="-szrvnAvTn_Sn9t5M3lu-196" value="Make" style="shape=rhombus;perimeter=rhombusPerimeter;whiteSpace=wrap;html=1;align=center;fillColor=light-dark(#FFFFFF,#FFFFFF);strokeColor=light-dark(#000000,#000000);fillStyle=solid;fontColor=light-dark(#000000,#000000);perimeterSpacing=1;gradientColor=none;" vertex="1" parent="1">
          <mxGeometry x="2150" y="785" width="120" height="60" as="geometry" />
        </mxCell>
        <mxCell id="-szrvnAvTn_Sn9t5M3lu-197" value="" style="endArrow=none;html=1;rounded=0;strokeColor=light-dark(#000000,#000000);exitX=0;exitY=0.5;exitDx=0;exitDy=0;" edge="1" parent="1" source="-szrvnAvTn_Sn9t5M3lu-201" target="-szrvnAvTn_Sn9t5M3lu-196">
          <mxGeometry relative="1" as="geometry">
            <mxPoint x="2370" y="815" as="sourcePoint" />
            <mxPoint x="2408" y="814.5" as="targetPoint" />
          </mxGeometry>
        </mxCell>
        <mxCell id="-szrvnAvTn_Sn9t5M3lu-198" value="M" style="resizable=0;html=1;whiteSpace=wrap;align=left;verticalAlign=bottom;" connectable="0" vertex="1" parent="-szrvnAvTn_Sn9t5M3lu-197">
          <mxGeometry x="-1" relative="1" as="geometry" />
        </mxCell>
        <mxCell id="-szrvnAvTn_Sn9t5M3lu-199" value="(1,N)" style="edgeLabel;html=1;align=center;verticalAlign=middle;resizable=0;points=[];fontColor=light-dark(#000000,#000000);labelBackgroundColor=light-dark(#FFFFFF,#FFFFFF);" vertex="1" connectable="0" parent="-szrvnAvTn_Sn9t5M3lu-197">
          <mxGeometry x="-0.1179" y="-2" relative="1" as="geometry">
            <mxPoint x="-16" y="-8" as="offset" />
          </mxGeometry>
        </mxCell>
        <mxCell id="-szrvnAvTn_Sn9t5M3lu-200" value="" style="edgeStyle=orthogonalEdgeStyle;rounded=0;orthogonalLoop=1;jettySize=auto;html=1;endArrow=none;startFill=0;" edge="1" parent="1" source="-szrvnAvTn_Sn9t5M3lu-201" target="-szrvnAvTn_Sn9t5M3lu-196">
          <mxGeometry relative="1" as="geometry" />
        </mxCell>
        <mxCell id="-szrvnAvTn_Sn9t5M3lu-201" value="&lt;span style=&quot;text-wrap-mode: nowrap;&quot;&gt;Observation&lt;/span&gt;" style="whiteSpace=wrap;html=1;align=center;perimeterSpacing=1;rounded=0;strokeWidth=1;strokeColor=light-dark(#000000,#000000);fillStyle=solid;gradientColor=none;fillColor=light-dark(#FFFFFF,#FFFFFF);perimeter=rectanglePerimeter;fixDash=0;" vertex="1" parent="1">
          <mxGeometry x="2330" y="795" width="100" height="40" as="geometry" />
        </mxCell>
        <mxCell id="-szrvnAvTn_Sn9t5M3lu-202" value="Is" style="shape=rhombus;perimeter=rhombusPerimeter;whiteSpace=wrap;html=1;align=center;fillColor=light-dark(#FFFFFF,#FFFFFF);strokeColor=light-dark(#000000,#000000);fillStyle=solid;fontColor=light-dark(#000000,#000000);perimeterSpacing=1;gradientColor=none;" vertex="1" parent="1">
          <mxGeometry x="2513.33" y="785" width="120" height="60" as="geometry" />
        </mxCell>
        <mxCell id="-szrvnAvTn_Sn9t5M3lu-203" value="" style="endArrow=none;html=1;rounded=0;strokeColor=light-dark(#000000,#000000);exitX=0;exitY=0.5;exitDx=0;exitDy=0;" edge="1" parent="1" source="-szrvnAvTn_Sn9t5M3lu-207" target="-szrvnAvTn_Sn9t5M3lu-202">
          <mxGeometry relative="1" as="geometry">
            <mxPoint x="2730.68" y="814" as="sourcePoint" />
            <mxPoint x="2768.68" y="813.5" as="targetPoint" />
          </mxGeometry>
        </mxCell>
        <mxCell id="-szrvnAvTn_Sn9t5M3lu-204" value="M" style="resizable=0;html=1;whiteSpace=wrap;align=left;verticalAlign=bottom;" connectable="0" vertex="1" parent="-szrvnAvTn_Sn9t5M3lu-203">
          <mxGeometry x="-1" relative="1" as="geometry" />
        </mxCell>
        <mxCell id="-szrvnAvTn_Sn9t5M3lu-205" value="(1,N)" style="edgeLabel;html=1;align=center;verticalAlign=middle;resizable=0;points=[];fontColor=light-dark(#000000,#000000);labelBackgroundColor=light-dark(#FFFFFF,#FFFFFF);" vertex="1" connectable="0" parent="-szrvnAvTn_Sn9t5M3lu-203">
          <mxGeometry x="-0.1179" y="-2" relative="1" as="geometry">
            <mxPoint x="-16" y="-8" as="offset" />
          </mxGeometry>
        </mxCell>
        <mxCell id="-szrvnAvTn_Sn9t5M3lu-206" value="" style="edgeStyle=orthogonalEdgeStyle;rounded=0;orthogonalLoop=1;jettySize=auto;html=1;endArrow=none;startFill=0;" edge="1" parent="1" source="-szrvnAvTn_Sn9t5M3lu-207" target="-szrvnAvTn_Sn9t5M3lu-202">
          <mxGeometry relative="1" as="geometry" />
        </mxCell>
        <mxCell id="-szrvnAvTn_Sn9t5M3lu-207" value="&lt;span style=&quot;text-wrap-mode: nowrap;&quot;&gt;Type_Observation&lt;/span&gt;" style="whiteSpace=wrap;html=1;align=center;perimeterSpacing=1;rounded=0;strokeWidth=1;strokeColor=light-dark(#000000,#000000);fillStyle=solid;gradientColor=none;fillColor=light-dark(#FFFFFF,#FFFFFF);perimeter=rectanglePerimeter;fixDash=0;" vertex="1" parent="1">
          <mxGeometry x="2690.68" y="794" width="100" height="40" as="geometry" />
        </mxCell>
        <mxCell id="-szrvnAvTn_Sn9t5M3lu-208" value="" style="edgeStyle=orthogonalEdgeStyle;rounded=0;orthogonalLoop=1;jettySize=auto;html=1;endArrow=none;startFill=0;entryX=1;entryY=0.5;entryDx=0;entryDy=0;exitX=0;exitY=0.5;exitDx=0;exitDy=0;" edge="1" parent="1" source="-szrvnAvTn_Sn9t5M3lu-202" target="-szrvnAvTn_Sn9t5M3lu-201">
          <mxGeometry relative="1" as="geometry">
            <mxPoint x="2499.33" y="814.8" as="sourcePoint" />
            <mxPoint x="2441.33" y="814.8" as="targetPoint" />
          </mxGeometry>
        </mxCell>
        <mxCell id="-szrvnAvTn_Sn9t5M3lu-209" value="(1,1)" style="edgeLabel;html=1;align=center;verticalAlign=middle;resizable=0;points=[];" vertex="1" connectable="0" parent="-szrvnAvTn_Sn9t5M3lu-208">
          <mxGeometry x="0.0851" y="-1" relative="1" as="geometry">
            <mxPoint x="-9" y="-14" as="offset" />
          </mxGeometry>
        </mxCell>
        <mxCell id="-szrvnAvTn_Sn9t5M3lu-210" value="Characterize" style="shape=rhombus;perimeter=rhombusPerimeter;whiteSpace=wrap;html=1;align=center;fillColor=light-dark(#FFFFFF,#FFFFFF);strokeColor=light-dark(#000000,#000000);fillStyle=solid;fontColor=light-dark(#000000,#000000);perimeterSpacing=1;gradientColor=none;" vertex="1" parent="1">
          <mxGeometry x="2320.4" y="910" width="120" height="60" as="geometry" />
        </mxCell>
        <mxCell id="-szrvnAvTn_Sn9t5M3lu-211" value="" style="endArrow=none;html=1;rounded=0;strokeColor=light-dark(#000000,#000000);exitX=0;exitY=0.5;exitDx=0;exitDy=0;" edge="1" parent="1" source="-szrvnAvTn_Sn9t5M3lu-216" target="-szrvnAvTn_Sn9t5M3lu-210">
          <mxGeometry relative="1" as="geometry">
            <mxPoint x="2540.4" y="940" as="sourcePoint" />
            <mxPoint x="2578.4" y="939.5" as="targetPoint" />
          </mxGeometry>
        </mxCell>
        <mxCell id="-szrvnAvTn_Sn9t5M3lu-212" value="M" style="resizable=0;html=1;whiteSpace=wrap;align=left;verticalAlign=bottom;" connectable="0" vertex="1" parent="-szrvnAvTn_Sn9t5M3lu-211">
          <mxGeometry x="-1" relative="1" as="geometry" />
        </mxCell>
        <mxCell id="-szrvnAvTn_Sn9t5M3lu-213" value="(1,N)" style="edgeLabel;html=1;align=center;verticalAlign=middle;resizable=0;points=[];fontColor=light-dark(#000000,#000000);labelBackgroundColor=light-dark(#FFFFFF,#FFFFFF);" vertex="1" connectable="0" parent="-szrvnAvTn_Sn9t5M3lu-211">
          <mxGeometry x="-0.1179" y="-2" relative="1" as="geometry">
            <mxPoint x="-16" y="-8" as="offset" />
          </mxGeometry>
        </mxCell>
        <mxCell id="-szrvnAvTn_Sn9t5M3lu-214" value="(1,N)" style="edgeLabel;html=1;align=center;verticalAlign=middle;resizable=0;points=[];fontColor=light-dark(#000000,#000000);labelBackgroundColor=light-dark(#FFFFFF,#FFFFFF);" vertex="1" connectable="0" parent="-szrvnAvTn_Sn9t5M3lu-211">
          <mxGeometry x="-0.1179" y="-2" relative="1" as="geometry">
            <mxPoint x="-75" y="-88" as="offset" />
          </mxGeometry>
        </mxCell>
        <mxCell id="-szrvnAvTn_Sn9t5M3lu-215" value="" style="edgeStyle=orthogonalEdgeStyle;rounded=0;orthogonalLoop=1;jettySize=auto;html=1;endArrow=none;startFill=0;" edge="1" parent="1" source="-szrvnAvTn_Sn9t5M3lu-216" target="-szrvnAvTn_Sn9t5M3lu-210">
          <mxGeometry relative="1" as="geometry" />
        </mxCell>
        <mxCell id="-szrvnAvTn_Sn9t5M3lu-216" value="&lt;span style=&quot;text-wrap-mode: nowrap;&quot;&gt;Category_Observation&lt;/span&gt;" style="whiteSpace=wrap;html=1;align=center;perimeterSpacing=1;rounded=0;strokeWidth=1;strokeColor=light-dark(#000000,#000000);fillStyle=solid;gradientColor=none;fillColor=light-dark(#FFFFFF,#FFFFFF);perimeter=rectanglePerimeter;fixDash=0;" vertex="1" parent="1">
          <mxGeometry x="2500.4" y="920" width="128.93" height="40" as="geometry" />
        </mxCell>
        <mxCell id="-szrvnAvTn_Sn9t5M3lu-217" value="" style="edgeStyle=orthogonalEdgeStyle;rounded=0;orthogonalLoop=1;jettySize=auto;html=1;endArrow=none;startFill=0;entryX=0.5;entryY=1;entryDx=0;entryDy=0;exitX=0.5;exitY=0;exitDx=0;exitDy=0;" edge="1" parent="1" source="-szrvnAvTn_Sn9t5M3lu-210" target="-szrvnAvTn_Sn9t5M3lu-201">
          <mxGeometry relative="1" as="geometry">
            <mxPoint x="2440.4" y="890" as="sourcePoint" />
            <mxPoint x="2382.4" y="890" as="targetPoint" />
          </mxGeometry>
        </mxCell>
        <mxCell id="-szrvnAvTn_Sn9t5M3lu-218" style="edgeStyle=orthogonalEdgeStyle;rounded=0;orthogonalLoop=1;jettySize=auto;html=1;endArrow=none;startFill=0;" edge="1" parent="1" source="-szrvnAvTn_Sn9t5M3lu-196">
          <mxGeometry relative="1" as="geometry">
            <mxPoint x="1767" y="340" as="targetPoint" />
          </mxGeometry>
        </mxCell>
        <mxCell id="-szrvnAvTn_Sn9t5M3lu-219" value="(1,1)" style="edgeLabel;html=1;align=center;verticalAlign=middle;resizable=0;points=[];" vertex="1" connectable="0" parent="1">
          <mxGeometry x="2450.0021739130434" y="814" as="geometry">
            <mxPoint x="-55" y="-50" as="offset" />
          </mxGeometry>
        </mxCell>
        <mxCell id="-szrvnAvTn_Sn9t5M3lu-220" value="&lt;span style=&quot;color: rgb(0, 0, 0); font-family: Helvetica; font-size: 11px; font-style: normal; font-variant-ligatures: normal; font-variant-caps: normal; font-weight: 400; letter-spacing: normal; orphans: 2; text-align: center; text-indent: 0px; text-transform: none; widows: 2; word-spacing: 0px; -webkit-text-stroke-width: 0px; white-space: nowrap; background-color: rgb(255, 255, 255); text-decoration-thickness: initial; text-decoration-style: initial; text-decoration-color: initial; display: inline !important; float: none;&quot;&gt;(1,N)&lt;/span&gt;" style="text;whiteSpace=wrap;html=1;" vertex="1" parent="1">
          <mxGeometry x="2010" y="794" width="20" height="40" as="geometry" />
        </mxCell>
        <mxCell id="-szrvnAvTn_Sn9t5M3lu-221" value="" style="edgeStyle=orthogonalEdgeStyle;rounded=0;orthogonalLoop=1;jettySize=auto;html=1;endArrow=none;startFill=0;" edge="1" parent="1" source="-szrvnAvTn_Sn9t5M3lu-222" target="-szrvnAvTn_Sn9t5M3lu-223">
          <mxGeometry relative="1" as="geometry" />
        </mxCell>
        <mxCell id="-szrvnAvTn_Sn9t5M3lu-222" value="Payer_Transaction" style="whiteSpace=wrap;html=1;align=center;perimeterSpacing=1;rounded=0;strokeWidth=1;strokeColor=light-dark(#000000,#000000);fillStyle=solid;gradientColor=none;fillColor=light-dark(#FFFFFF,#FFFFFF);perimeter=rectanglePerimeter;fixDash=0;fontColor=light-dark(#000000,#000000);" vertex="1" parent="1">
          <mxGeometry x="3080" y="-320" width="100" height="40" as="geometry" />
        </mxCell>
        <mxCell id="-szrvnAvTn_Sn9t5M3lu-223" value="Do" style="shape=rhombus;perimeter=rhombusPerimeter;whiteSpace=wrap;html=1;align=center;fillColor=light-dark(#FFFFFF,#FFFFFF);strokeColor=light-dark(#000000,#000000);fillStyle=solid;fontColor=light-dark(#000000,#000000);perimeterSpacing=1;gradientColor=none;" vertex="1" parent="1">
          <mxGeometry x="3070" y="-210" width="120" height="60" as="geometry" />
        </mxCell>
        <mxCell id="-szrvnAvTn_Sn9t5M3lu-224" value="" style="edgeStyle=orthogonalEdgeStyle;rounded=0;orthogonalLoop=1;jettySize=auto;html=1;endArrow=none;startFill=0;" edge="1" parent="1" source="-szrvnAvTn_Sn9t5M3lu-226" target="-szrvnAvTn_Sn9t5M3lu-223">
          <mxGeometry relative="1" as="geometry" />
        </mxCell>
        <mxCell id="-szrvnAvTn_Sn9t5M3lu-225" style="edgeStyle=orthogonalEdgeStyle;rounded=0;orthogonalLoop=1;jettySize=auto;html=1;exitX=0;exitY=0.25;exitDx=0;exitDy=0;entryX=1;entryY=0.5;entryDx=0;entryDy=0;endArrow=none;startFill=0;" edge="1" parent="1" source="-szrvnAvTn_Sn9t5M3lu-226" target="-szrvnAvTn_Sn9t5M3lu-239">
          <mxGeometry relative="1" as="geometry" />
        </mxCell>
        <mxCell id="-szrvnAvTn_Sn9t5M3lu-226" value="Payer" style="whiteSpace=wrap;html=1;align=center;perimeterSpacing=1;rounded=0;strokeWidth=1;strokeColor=light-dark(#000000,#000000);fillStyle=solid;gradientColor=none;fillColor=light-dark(#FFFFFF,#FFFFFF);perimeter=rectanglePerimeter;fixDash=0;fontColor=light-dark(#000000,#000000);" vertex="1" parent="1">
          <mxGeometry x="3080" y="-80" width="100" height="40" as="geometry" />
        </mxCell>
        <mxCell id="-szrvnAvTn_Sn9t5M3lu-227" value="&lt;span style=&quot;color: rgb(0, 0, 0); font-family: Helvetica; font-size: 11px; font-style: normal; font-variant-ligatures: normal; font-variant-caps: normal; font-weight: 400; letter-spacing: normal; orphans: 2; text-align: center; text-indent: 0px; text-transform: none; widows: 2; word-spacing: 0px; -webkit-text-stroke-width: 0px; white-space: nowrap; background-color: rgb(255, 255, 255); text-decoration-thickness: initial; text-decoration-style: initial; text-decoration-color: initial; display: inline !important; float: none;&quot;&gt;(1,N)&lt;/span&gt;" style="text;whiteSpace=wrap;html=1;" vertex="1" parent="1">
          <mxGeometry x="3140" y="-260" width="60" height="40" as="geometry" />
        </mxCell>
        <mxCell id="-szrvnAvTn_Sn9t5M3lu-228" value="&lt;span style=&quot;color: rgb(0, 0, 0); font-family: Helvetica; font-size: 11px; font-style: normal; font-variant-ligatures: normal; font-variant-caps: normal; font-weight: 400; letter-spacing: normal; orphans: 2; text-align: center; text-indent: 0px; text-transform: none; widows: 2; word-spacing: 0px; -webkit-text-stroke-width: 0px; white-space: nowrap; background-color: rgb(255, 255, 255); text-decoration-thickness: initial; text-decoration-style: initial; text-decoration-color: initial; display: inline !important; float: none;&quot;&gt;(1,N)&lt;/span&gt;" style="text;whiteSpace=wrap;html=1;" vertex="1" parent="1">
          <mxGeometry x="3140" y="-130" width="60" height="40" as="geometry" />
        </mxCell>
        <mxCell id="-szrvnAvTn_Sn9t5M3lu-229" value="" style="edgeStyle=orthogonalEdgeStyle;rounded=0;orthogonalLoop=1;jettySize=auto;html=1;endArrow=none;startFill=0;entryX=0;entryY=0.5;entryDx=0;entryDy=0;" edge="1" parent="1" source="-szrvnAvTn_Sn9t5M3lu-230" target="-szrvnAvTn_Sn9t5M3lu-226">
          <mxGeometry relative="1" as="geometry" />
        </mxCell>
        <mxCell id="-szrvnAvTn_Sn9t5M3lu-230" value="Pay" style="shape=rhombus;perimeter=rhombusPerimeter;whiteSpace=wrap;html=1;align=center;fillColor=light-dark(#FFFFFF,#FFFFFF);strokeColor=light-dark(#000000,#000000);fillStyle=solid;fontColor=light-dark(#000000,#000000);perimeterSpacing=1;gradientColor=none;" vertex="1" parent="1">
          <mxGeometry x="2760" y="-90" width="120" height="60" as="geometry" />
        </mxCell>
        <mxCell id="-szrvnAvTn_Sn9t5M3lu-231" style="edgeStyle=orthogonalEdgeStyle;rounded=0;orthogonalLoop=1;jettySize=auto;html=1;exitX=0.5;exitY=1;exitDx=0;exitDy=0;entryX=0.905;entryY=0.972;entryDx=0;entryDy=0;entryPerimeter=0;endArrow=none;startFill=0;" edge="1" parent="1" source="-szrvnAvTn_Sn9t5M3lu-230" target="-szrvnAvTn_Sn9t5M3lu-53">
          <mxGeometry relative="1" as="geometry" />
        </mxCell>
        <mxCell id="-szrvnAvTn_Sn9t5M3lu-232" value="&lt;span style=&quot;color: rgb(0, 0, 0); font-family: Helvetica; font-size: 11px; font-style: normal; font-variant-ligatures: normal; font-variant-caps: normal; font-weight: 400; letter-spacing: normal; orphans: 2; text-align: center; text-indent: 0px; text-transform: none; widows: 2; word-spacing: 0px; -webkit-text-stroke-width: 0px; white-space: nowrap; background-color: rgb(255, 255, 255); text-decoration-thickness: initial; text-decoration-style: initial; text-decoration-color: initial; display: inline !important; float: none;&quot;&gt;(1,N)&lt;/span&gt;" style="text;whiteSpace=wrap;html=1;" vertex="1" parent="1">
          <mxGeometry x="2920" y="-90" width="60" height="40" as="geometry" />
        </mxCell>
        <mxCell id="-szrvnAvTn_Sn9t5M3lu-233" value="(1,1)" style="edgeLabel;html=1;align=center;verticalAlign=middle;resizable=0;points=[];fontColor=light-dark(#000000,#000000);labelBackgroundColor=light-dark(#FFFFFF,#FFFFFF);" vertex="1" connectable="0" parent="1">
          <mxGeometry x="2740.6807519107697" y="30.002800105044116" as="geometry">
            <mxPoint x="57" y="54" as="offset" />
          </mxGeometry>
        </mxCell>
        <mxCell id="-szrvnAvTn_Sn9t5M3lu-234" value="" style="edgeStyle=orthogonalEdgeStyle;rounded=0;orthogonalLoop=1;jettySize=auto;html=1;endArrow=none;startFill=0;" edge="1" parent="1" source="-szrvnAvTn_Sn9t5M3lu-236" target="-szrvnAvTn_Sn9t5M3lu-226">
          <mxGeometry relative="1" as="geometry" />
        </mxCell>
        <mxCell id="-szrvnAvTn_Sn9t5M3lu-235" style="edgeStyle=orthogonalEdgeStyle;rounded=0;orthogonalLoop=1;jettySize=auto;html=1;exitX=0.5;exitY=1;exitDx=0;exitDy=0;entryX=0.5;entryY=1;entryDx=0;entryDy=0;endArrow=none;startFill=0;" edge="1" parent="1" source="-szrvnAvTn_Sn9t5M3lu-236" target="-szrvnAvTn_Sn9t5M3lu-176">
          <mxGeometry relative="1" as="geometry">
            <Array as="points">
              <mxPoint x="3130" y="1020" />
              <mxPoint x="1440" y="1020" />
            </Array>
          </mxGeometry>
        </mxCell>
        <mxCell id="-szrvnAvTn_Sn9t5M3lu-236" value="Insure" style="shape=rhombus;perimeter=rhombusPerimeter;whiteSpace=wrap;html=1;align=center;fillColor=light-dark(#FFFFFF,#FFFFFF);strokeColor=light-dark(#000000,#000000);fillStyle=solid;fontColor=light-dark(#000000,#000000);perimeterSpacing=1;gradientColor=none;" vertex="1" parent="1">
          <mxGeometry x="3070" y="70" width="120" height="60" as="geometry" />
        </mxCell>
        <mxCell id="-szrvnAvTn_Sn9t5M3lu-237" value="&lt;span style=&quot;color: rgb(0, 0, 0); font-family: Helvetica; font-size: 11px; font-style: normal; font-variant-ligatures: normal; font-variant-caps: normal; font-weight: 400; letter-spacing: normal; orphans: 2; text-align: center; text-indent: 0px; text-transform: none; widows: 2; word-spacing: 0px; -webkit-text-stroke-width: 0px; white-space: nowrap; background-color: rgb(255, 255, 255); text-decoration-thickness: initial; text-decoration-style: initial; text-decoration-color: initial; display: inline !important; float: none;&quot;&gt;(1,N)&lt;/span&gt;" style="text;whiteSpace=wrap;html=1;" vertex="1" parent="1">
          <mxGeometry x="3140" y="20" width="60" height="40" as="geometry" />
        </mxCell>
        <mxCell id="-szrvnAvTn_Sn9t5M3lu-238" value="&lt;span style=&quot;color: rgb(0, 0, 0); font-family: Helvetica; font-size: 11px; font-style: normal; font-variant-ligatures: normal; font-variant-caps: normal; font-weight: 400; letter-spacing: normal; orphans: 2; text-align: center; text-indent: 0px; text-transform: none; widows: 2; word-spacing: 0px; -webkit-text-stroke-width: 0px; white-space: nowrap; background-color: rgb(255, 255, 255); text-decoration-thickness: initial; text-decoration-style: initial; text-decoration-color: initial; display: inline !important; float: none;&quot;&gt;(1,1)&lt;/span&gt;" style="text;whiteSpace=wrap;html=1;" vertex="1" parent="1">
          <mxGeometry x="3140" y="160" width="60" height="40" as="geometry" />
        </mxCell>
        <mxCell id="-szrvnAvTn_Sn9t5M3lu-239" value="Pay" style="shape=rhombus;perimeter=rhombusPerimeter;whiteSpace=wrap;html=1;align=center;fillColor=light-dark(#FFFFFF,#FFFFFF);strokeColor=light-dark(#000000,#000000);fillStyle=solid;fontColor=light-dark(#000000,#000000);perimeterSpacing=1;gradientColor=none;" vertex="1" parent="1">
          <mxGeometry x="2850" y="-230" width="120" height="60" as="geometry" />
        </mxCell>
        <mxCell id="-szrvnAvTn_Sn9t5M3lu-240" value="&lt;span style=&quot;color: rgb(0, 0, 0); font-family: Helvetica; font-size: 11px; font-style: normal; font-variant-ligatures: normal; font-variant-caps: normal; font-weight: 400; letter-spacing: normal; orphans: 2; text-align: center; text-indent: 0px; text-transform: none; widows: 2; word-spacing: 0px; -webkit-text-stroke-width: 0px; white-space: nowrap; background-color: rgb(255, 255, 255); text-decoration-thickness: initial; text-decoration-style: initial; text-decoration-color: initial; display: inline !important; float: none;&quot;&gt;(1,N)&lt;/span&gt;" style="text;whiteSpace=wrap;html=1;" vertex="1" parent="1">
          <mxGeometry x="2980" y="-230" width="60" height="40" as="geometry" />
        </mxCell>
        <mxCell id="-szrvnAvTn_Sn9t5M3lu-241" value="&lt;span style=&quot;color: rgb(0, 0, 0); font-family: Helvetica; font-size: 11px; font-style: normal; font-variant-ligatures: normal; font-variant-caps: normal; font-weight: 400; letter-spacing: normal; orphans: 2; text-align: center; text-indent: 0px; text-transform: none; widows: 2; word-spacing: 0px; -webkit-text-stroke-width: 0px; white-space: nowrap; background-color: rgb(255, 255, 255); text-decoration-thickness: initial; text-decoration-style: initial; text-decoration-color: initial; display: inline !important; float: none;&quot;&gt;(1,1)&lt;/span&gt;" style="text;whiteSpace=wrap;html=1;" vertex="1" parent="1">
          <mxGeometry x="2780" y="-230" width="60" height="40" as="geometry" />
        </mxCell>
        <mxCell id="-szrvnAvTn_Sn9t5M3lu-242" style="edgeStyle=orthogonalEdgeStyle;rounded=0;orthogonalLoop=1;jettySize=auto;html=1;entryX=0.25;entryY=1;entryDx=0;entryDy=0;endArrow=none;startFill=0;" edge="1" parent="1" source="-szrvnAvTn_Sn9t5M3lu-244" target="-szrvnAvTn_Sn9t5M3lu-176">
          <mxGeometry relative="1" as="geometry" />
        </mxCell>
        <mxCell id="-szrvnAvTn_Sn9t5M3lu-243" style="edgeStyle=orthogonalEdgeStyle;rounded=0;orthogonalLoop=1;jettySize=auto;html=1;exitX=0;exitY=0.5;exitDx=0;exitDy=0;entryX=0.25;entryY=0;entryDx=0;entryDy=0;endArrow=none;startFill=0;" edge="1" parent="1" source="-szrvnAvTn_Sn9t5M3lu-244" target="-szrvnAvTn_Sn9t5M3lu-46">
          <mxGeometry relative="1" as="geometry" />
        </mxCell>
        <mxCell id="-szrvnAvTn_Sn9t5M3lu-244" value="Diagnose" style="shape=rhombus;perimeter=rhombusPerimeter;whiteSpace=wrap;html=1;align=center;fillColor=light-dark(#FFFFFF,#FFFFFF);strokeColor=light-dark(#000000,#000000);fillStyle=solid;fontColor=light-dark(#000000,#000000);perimeterSpacing=1;gradientColor=none;" vertex="1" parent="1">
          <mxGeometry x="150" y="990" width="120" height="60" as="geometry" />
        </mxCell>
        <mxCell id="-szrvnAvTn_Sn9t5M3lu-245" value="&lt;span style=&quot;color: rgb(0, 0, 0); font-family: Helvetica; font-size: 11px; font-style: normal; font-variant-ligatures: normal; font-variant-caps: normal; font-weight: 400; letter-spacing: normal; orphans: 2; text-align: center; text-indent: 0px; text-transform: none; widows: 2; word-spacing: 0px; -webkit-text-stroke-width: 0px; white-space: nowrap; background-color: rgb(255, 255, 255); text-decoration-thickness: initial; text-decoration-style: initial; text-decoration-color: initial; display: inline !important; float: none;&quot;&gt;(1,1)&lt;/span&gt;" style="text;whiteSpace=wrap;html=1;" vertex="1" parent="1">
          <mxGeometry x="1320" y="850" width="60" height="40" as="geometry" />
        </mxCell>
        <mxCell id="-szrvnAvTn_Sn9t5M3lu-246" value="&lt;span style=&quot;color: rgb(0, 0, 0); font-family: Helvetica; font-size: 11px; font-style: normal; font-variant-ligatures: normal; font-variant-caps: normal; font-weight: 400; letter-spacing: normal; orphans: 2; text-align: center; text-indent: 0px; text-transform: none; widows: 2; word-spacing: 0px; -webkit-text-stroke-width: 0px; white-space: nowrap; background-color: rgb(255, 255, 255); text-decoration-thickness: initial; text-decoration-style: initial; text-decoration-color: initial; display: inline !important; float: none;&quot;&gt;(1,N)&lt;/span&gt;" style="text;whiteSpace=wrap;html=1;" vertex="1" parent="1">
          <mxGeometry x="650" y="990" width="60" height="40" as="geometry" />
        </mxCell>
        <mxCell id="-szrvnAvTn_Sn9t5M3lu-247" value="&lt;span style=&quot;color: rgb(0, 0, 0); font-family: Helvetica; font-size: 11px; font-style: normal; font-variant-ligatures: normal; font-variant-caps: normal; font-weight: 400; letter-spacing: normal; orphans: 2; text-align: center; text-indent: 0px; text-transform: none; widows: 2; word-spacing: 0px; -webkit-text-stroke-width: 0px; white-space: nowrap; background-color: rgb(255, 255, 255); text-decoration-thickness: initial; text-decoration-style: initial; text-decoration-color: initial; display: inline !important; float: none;&quot;&gt;(1,N)&lt;/span&gt;" style="text;whiteSpace=wrap;html=1;" vertex="1" parent="1">
          <mxGeometry x="140" y="774" width="60" height="40" as="geometry" />
        </mxCell>
        <mxCell id="-szrvnAvTn_Sn9t5M3lu-248" value="Take place in" style="shape=rhombus;perimeter=rhombusPerimeter;whiteSpace=wrap;html=1;align=center;fillColor=light-dark(#FFFFFF,#FFFFFF);strokeColor=light-dark(#000000,#000000);fillStyle=solid;fontColor=light-dark(#000000,#000000);perimeterSpacing=1;gradientColor=none;" vertex="1" parent="1">
          <mxGeometry x="800" y="670" width="120" height="60" as="geometry" />
        </mxCell>
        <mxCell id="-szrvnAvTn_Sn9t5M3lu-250" style="edgeStyle=orthogonalEdgeStyle;rounded=0;orthogonalLoop=1;jettySize=auto;html=1;exitX=0.5;exitY=1;exitDx=0;exitDy=0;entryX=0.611;entryY=0.989;entryDx=0;entryDy=0;entryPerimeter=0;endArrow=none;startFill=0;" edge="1" parent="1" source="-szrvnAvTn_Sn9t5M3lu-248" target="-szrvnAvTn_Sn9t5M3lu-53">
          <mxGeometry relative="1" as="geometry">
            <Array as="points">
              <mxPoint x="860" y="810" />
              <mxPoint x="1791" y="810" />
            </Array>
          </mxGeometry>
        </mxCell>
        <mxCell id="-szrvnAvTn_Sn9t5M3lu-251" value="&lt;span style=&quot;color: rgb(0, 0, 0); font-family: Helvetica; font-size: 11px; font-style: normal; font-variant-ligatures: normal; font-variant-caps: normal; font-weight: 400; letter-spacing: normal; orphans: 2; text-align: center; text-indent: 0px; text-transform: none; widows: 2; word-spacing: 0px; -webkit-text-stroke-width: 0px; white-space: nowrap; background-color: rgb(255, 255, 255); text-decoration-thickness: initial; text-decoration-style: initial; text-decoration-color: initial; display: inline !important; float: none;&quot;&gt;(1,1)&lt;/span&gt;" style="text;whiteSpace=wrap;html=1;" vertex="1" parent="1">
          <mxGeometry x="871" y="745" width="60" height="40" as="geometry" />
        </mxCell>
        <mxCell id="-szrvnAvTn_Sn9t5M3lu-252" value="&lt;span style=&quot;color: rgb(0, 0, 0); font-family: Helvetica; font-size: 11px; font-style: normal; font-variant-ligatures: normal; font-variant-caps: normal; font-weight: 400; letter-spacing: normal; orphans: 2; text-align: center; text-indent: 0px; text-transform: none; widows: 2; word-spacing: 0px; -webkit-text-stroke-width: 0px; white-space: nowrap; background-color: rgb(255, 255, 255); text-decoration-thickness: initial; text-decoration-style: initial; text-decoration-color: initial; display: inline !important; float: none;&quot;&gt;(1,N)&lt;/span&gt;" style="text;whiteSpace=wrap;html=1;" vertex="1" parent="1">
          <mxGeometry x="860" y="605" width="60" height="40" as="geometry" />
        </mxCell>
        <mxCell id="-szrvnAvTn_Sn9t5M3lu-254" value="&lt;span style=&quot;color: rgb(0, 0, 0); font-family: Helvetica; font-size: 11px; font-style: normal; font-variant-ligatures: normal; font-variant-caps: normal; font-weight: 400; letter-spacing: normal; orphans: 2; text-align: center; text-indent: 0px; text-transform: none; widows: 2; word-spacing: 0px; -webkit-text-stroke-width: 0px; white-space: nowrap; background-color: rgb(255, 255, 255); text-decoration-thickness: initial; text-decoration-style: initial; text-decoration-color: initial; display: inline !important; float: none;&quot;&gt;(1,N)&lt;/span&gt;" style="text;whiteSpace=wrap;html=1;" vertex="1" parent="1">
          <mxGeometry x="2350" y="-50" width="60" height="40" as="geometry" />
        </mxCell>
        <mxCell id="-szrvnAvTn_Sn9t5M3lu-259" style="edgeStyle=orthogonalEdgeStyle;rounded=0;orthogonalLoop=1;jettySize=auto;html=1;exitX=0.5;exitY=1;exitDx=0;exitDy=0;entryX=0.5;entryY=0;entryDx=0;entryDy=0;endArrow=none;startFill=0;" edge="1" parent="1" source="-szrvnAvTn_Sn9t5M3lu-258" target="-szrvnAvTn_Sn9t5M3lu-138">
          <mxGeometry relative="1" as="geometry" />
        </mxCell>
        <mxCell id="-szrvnAvTn_Sn9t5M3lu-260" style="edgeStyle=orthogonalEdgeStyle;rounded=0;orthogonalLoop=1;jettySize=auto;html=1;exitX=0;exitY=0.5;exitDx=0;exitDy=0;entryX=1;entryY=0.75;entryDx=0;entryDy=0;endArrow=none;startFill=0;" edge="1" parent="1" source="-szrvnAvTn_Sn9t5M3lu-258" target="-szrvnAvTn_Sn9t5M3lu-19">
          <mxGeometry relative="1" as="geometry">
            <Array as="points">
              <mxPoint x="970" y="380" />
              <mxPoint x="970" y="281" />
            </Array>
          </mxGeometry>
        </mxCell>
        <mxCell id="-szrvnAvTn_Sn9t5M3lu-258" value="Born" style="shape=rhombus;perimeter=rhombusPerimeter;whiteSpace=wrap;html=1;align=center;fillColor=light-dark(#FFFFFF,#FFFFFF);strokeColor=light-dark(#000000,#000000);fillStyle=solid;fontColor=light-dark(#000000,#000000);perimeterSpacing=1;gradientColor=none;" vertex="1" parent="1">
          <mxGeometry x="1160" y="350" width="120" height="60" as="geometry" />
        </mxCell>
        <mxCell id="-szrvnAvTn_Sn9t5M3lu-261" value="&lt;span style=&quot;color: rgb(0, 0, 0); font-family: Helvetica; font-size: 11px; font-style: normal; font-variant-ligatures: normal; font-variant-caps: normal; font-weight: 400; letter-spacing: normal; orphans: 2; text-align: center; text-indent: 0px; text-transform: none; widows: 2; word-spacing: 0px; -webkit-text-stroke-width: 0px; white-space: nowrap; background-color: rgb(255, 255, 255); text-decoration-thickness: initial; text-decoration-style: initial; text-decoration-color: initial; display: inline !important; float: none;&quot;&gt;(1,1)&lt;/span&gt;" style="text;whiteSpace=wrap;html=1;" vertex="1" parent="1">
          <mxGeometry x="1220" y="420" width="60" height="40" as="geometry" />
        </mxCell>
        <mxCell id="-szrvnAvTn_Sn9t5M3lu-262" value="&lt;span style=&quot;color: rgb(0, 0, 0); font-family: Helvetica; font-size: 11px; font-style: normal; font-variant-ligatures: normal; font-variant-caps: normal; font-weight: 400; letter-spacing: normal; orphans: 2; text-align: center; text-indent: 0px; text-transform: none; widows: 2; word-spacing: 0px; -webkit-text-stroke-width: 0px; white-space: nowrap; background-color: rgb(255, 255, 255); text-decoration-thickness: initial; text-decoration-style: initial; text-decoration-color: initial; float: none; display: inline !important;&quot;&gt;(1,N)&lt;/span&gt;" style="text;whiteSpace=wrap;html=1;" vertex="1" parent="1">
          <mxGeometry x="1040" y="350" width="60" height="40" as="geometry" />
        </mxCell>
      </root>
    </mxGraphModel>
  </diagram>
</mxfile>
